<svg width="26" height="25" viewBox="0 0 26 25" fill="none" xmlns="http://www.w3.org/2000/svg">
<path fill-rule="evenodd" clip-rule="evenodd" d="M13 0C6.0971 0 0.5 5.5971 0.5 12.5C0.5 19.4029 6.0971 25 13 25C19.9029 25 25.5 19.4029 25.5 12.5C25.5 5.5971 19.9029 0 13 0ZM19.4117 8.32052L11.6495 18.2815C11.5881 18.3428 11.4876 18.4768 11.3649 18.4768C11.2365 18.4768 11.1528 18.3875 11.0803 18.3149C11.0077 18.2424 6.67737 14.0794 6.67737 14.0794L6.59367 13.9957C6.56018 13.9455 6.53228 13.8841 6.53228 13.8172C6.53228 13.7502 6.56018 13.6888 6.59367 13.6386C6.61599 13.6163 6.63273 13.5995 6.65505 13.5716C7.08474 13.1196 7.95527 12.2044 8.01108 12.1486C8.08362 12.0761 8.14501 11.9812 8.27893 11.9812C8.41844 11.9812 8.50773 12.0984 8.57469 12.1654C8.64166 12.2323 11.0859 14.5817 11.0859 14.5817L17.2968 6.60177C17.3526 6.55712 17.4196 6.52364 17.4921 6.52364C17.5646 6.52364 17.6316 6.55154 17.6874 6.59619L19.395 7.94105C19.4396 7.99686 19.4675 8.06382 19.4675 8.13636C19.4731 8.20891 19.4452 8.27029 19.4117 8.32052Z" fill="#47C77A"/>
</svg>
