<svg width="25" height="24" viewBox="0 0 25 24" fill="none" xmlns="http://www.w3.org/2000/svg">
<path fill-rule="evenodd" clip-rule="evenodd" d="M12.75 0C6.12321 0 0.75 5.37321 0.75 12C0.75 18.6268 6.12321 24 12.75 24C19.3768 24 24.75 18.6268 24.75 12C24.75 5.37321 19.3768 0 12.75 0ZM18.9053 7.98745L11.4535 17.5499C11.3946 17.6089 11.2982 17.7374 11.1803 17.7374C11.0571 17.7374 10.9767 17.6517 10.9071 17.5821C10.8374 17.5124 6.6803 13.516 6.6803 13.516L6.59994 13.4357C6.5678 13.3875 6.54102 13.3285 6.54102 13.2642C6.54102 13.2 6.5678 13.141 6.59994 13.0928C6.62137 13.0714 6.63744 13.0553 6.65887 13.0285C7.07137 12.5946 7.90709 11.716 7.96066 11.6624C8.0303 11.5928 8.08923 11.5017 8.2178 11.5017C8.35173 11.5017 8.43744 11.6142 8.50173 11.6785C8.56602 11.7428 10.9124 13.9982 10.9124 13.9982L16.8749 6.33745C16.9285 6.29459 16.9928 6.26245 17.0624 6.26245C17.1321 6.26245 17.1964 6.28924 17.2499 6.33209L18.8892 7.62317C18.9321 7.67674 18.9589 7.74102 18.9589 7.81067C18.9642 7.88031 18.9374 7.93924 18.9053 7.98745Z" fill="#47C77A"/>
</svg>
