<svg width="25" height="24" viewBox="0 0 25 24" fill="none" xmlns="http://www.w3.org/2000/svg">
<path d="M9.32388 18.5881L9.51788 17.8636C9.34078 17.8162 9.15245 17.8352 8.98847 17.9172L9.32388 18.5881ZM4.5 21L3.75754 20.8939C3.71809 21.1701 3.83516 21.4453 4.06147 21.6084C4.28777 21.7715 4.5859 21.7956 4.83541 21.6708L4.5 21ZM5.15323 16.4274L5.89569 16.5335C5.93177 16.2809 5.83702 16.0274 5.64418 15.8604L5.15323 16.4274ZM12.5 19.75C18.2722 19.75 23.25 15.98 23.25 11H21.75C21.75 14.8565 17.7735 18.25 12.5 18.25V19.75ZM9.12989 19.3125C10.1914 19.5968 11.3246 19.75 12.5 19.75V18.25C11.4548 18.25 10.4521 18.1137 9.51788 17.8636L9.12989 19.3125ZM4.83541 21.6708L9.65929 19.2589L8.98847 17.9172L4.16459 20.3292L4.83541 21.6708ZM4.41077 16.3213L3.75754 20.8939L5.24246 21.1061L5.89569 16.5335L4.41077 16.3213ZM1.75 11C1.75 13.3485 2.88036 15.4514 4.66228 16.9944L5.64418 15.8604C4.13223 14.5512 3.25 12.8408 3.25 11H1.75ZM12.5 2.25C6.72776 2.25 1.75 6.01998 1.75 11H3.25C3.25 7.14346 7.22654 3.75 12.5 3.75V2.25ZM23.25 11C23.25 6.01998 18.2722 2.25 12.5 2.25V3.75C17.7735 3.75 21.75 7.14346 21.75 11H23.25Z" fill="#FAB900"/>
</svg>
