<svg width="194" height="89" viewBox="0 0 194 89" fill="none" xmlns="http://www.w3.org/2000/svg">
<g filter="url(#filter0_d)">
<rect x="10" y="10" width="165" height="60" rx="4.3396" fill="#3B5998"/>
</g>
<path d="M68.9327 33.936V35.5503H63.812V39.1088H67.8044V40.7231H63.812V46H61.8331V33.936H68.9327ZM70.107 41.1744C70.107 40.2139 70.3037 39.3633 70.6972 38.6227C71.1022 37.8821 71.6461 37.3093 72.3288 36.9042C73.0232 36.4876 73.787 36.2793 74.6202 36.2793C75.3724 36.2793 76.0262 36.4298 76.5817 36.7307C77.1487 37.02 77.6 37.3845 77.9356 37.8242V36.4356H79.9318V46H77.9356V44.5766C77.6 45.028 77.1429 45.4041 76.5643 45.7049C75.9857 46.0058 75.3261 46.1563 74.5854 46.1563C73.7638 46.1563 73.0116 45.948 72.3288 45.5314C71.6461 45.1032 71.1022 44.513 70.6972 43.7608C70.3037 42.997 70.107 42.1349 70.107 41.1744ZM77.9356 41.2091C77.9356 40.5495 77.7967 39.9767 77.519 39.4906C77.2528 39.0046 76.8999 38.6343 76.4601 38.3797C76.0204 38.1251 75.5459 37.9978 75.0368 37.9978C74.5276 37.9978 74.0531 38.1251 73.6134 38.3797C73.1736 38.6227 72.8149 38.9872 72.5372 39.4733C72.271 39.9477 72.1379 40.5148 72.1379 41.1744C72.1379 41.834 72.271 42.4126 72.5372 42.9102C72.8149 43.4078 73.1736 43.7897 73.6134 44.0559C74.0647 44.3105 74.5392 44.4378 75.0368 44.4378C75.5459 44.4378 76.0204 44.3105 76.4601 44.0559C76.8999 43.8013 77.2528 43.431 77.519 42.945C77.7967 42.4473 77.9356 41.8687 77.9356 41.2091ZM81.8714 41.2091C81.8714 40.2255 82.0681 39.3633 82.4615 38.6227C82.8666 37.8705 83.422 37.2919 84.1279 36.8869C84.8338 36.4818 85.6439 36.2793 86.5581 36.2793C87.7153 36.2793 88.6701 36.5571 89.4222 37.1125C90.186 37.6564 90.701 38.4376 90.9671 39.4559H88.8321C88.6585 38.9815 88.3807 38.6111 87.9989 38.345C87.617 38.0788 87.1367 37.9457 86.5581 37.9457C85.7481 37.9457 85.1 38.235 84.614 38.8137C84.1395 39.3807 83.9023 40.1792 83.9023 41.2091C83.9023 42.239 84.1395 43.0433 84.614 43.6219C85.1 44.2005 85.7481 44.4899 86.5581 44.4899C87.7038 44.4899 88.4618 43.9865 88.8321 42.9797H90.9671C90.6894 43.9517 90.1687 44.7271 89.4049 45.3057C88.6411 45.8727 87.6922 46.1563 86.5581 46.1563C85.6439 46.1563 84.8338 45.9537 84.1279 45.5487C83.422 45.1321 82.8666 44.5535 82.4615 43.8129C82.0681 43.0607 81.8714 42.1928 81.8714 41.2091ZM101.705 40.9835C101.705 41.3422 101.682 41.6662 101.636 41.9555H94.3279C94.3858 42.7193 94.6693 43.3326 95.1785 43.7955C95.6876 44.2584 96.3125 44.4899 97.0532 44.4899C98.1178 44.4899 98.87 44.0443 99.3097 43.1533H101.445C101.156 44.0327 100.629 44.756 99.8652 45.3231C99.113 45.8785 98.1757 46.1563 97.0532 46.1563C96.1389 46.1563 95.3173 45.9537 94.5883 45.5487C93.8708 45.1321 93.3037 44.5535 92.8871 43.8129C92.4821 43.0607 92.2796 42.1928 92.2796 41.2091C92.2796 40.2255 92.4763 39.3633 92.8698 38.6227C93.2748 37.8705 93.8361 37.2919 94.5535 36.8869C95.2826 36.4818 96.1158 36.2793 97.0532 36.2793C97.9558 36.2793 98.7601 36.4761 99.466 36.8695C100.172 37.263 100.722 37.8184 101.115 38.5359C101.508 39.2418 101.705 40.0577 101.705 40.9835ZM99.6396 40.3586C99.628 39.6295 99.3676 39.0451 98.8584 38.6054C98.3492 38.1656 97.7186 37.9457 96.9664 37.9457C96.2836 37.9457 95.6992 38.1656 95.2132 38.6054C94.7271 39.0335 94.4378 39.6179 94.3452 40.3586H99.6396ZM105.631 37.8589C105.967 37.3961 106.424 37.02 107.003 36.7307C107.593 36.4298 108.247 36.2793 108.964 36.2793C109.809 36.2793 110.573 36.4818 111.256 36.8869C111.938 37.2919 112.476 37.8705 112.87 38.6227C113.263 39.3633 113.46 40.2139 113.46 41.1744C113.46 42.1349 113.263 42.997 112.87 43.7608C112.476 44.513 111.933 45.1032 111.238 45.5314C110.555 45.948 109.797 46.1563 108.964 46.1563C108.224 46.1563 107.564 46.0116 106.985 45.7223C106.418 45.433 105.967 45.0627 105.631 44.6114V46H103.653V33.1548H105.631V37.8589ZM111.447 41.1744C111.447 40.5148 111.308 39.9477 111.03 39.4733C110.764 38.9872 110.405 38.6227 109.954 38.3797C109.514 38.1251 109.039 37.9978 108.53 37.9978C108.033 37.9978 107.558 38.1251 107.107 38.3797C106.667 38.6343 106.308 39.0046 106.031 39.4906C105.765 39.9767 105.631 40.5495 105.631 41.2091C105.631 41.8687 105.765 42.4473 106.031 42.945C106.308 43.431 106.667 43.8013 107.107 44.0559C107.558 44.3105 108.033 44.4378 108.53 44.4378C109.039 44.4378 109.514 44.3105 109.954 44.0559C110.405 43.7897 110.764 43.4078 111.03 42.9102C111.308 42.4126 111.447 41.834 111.447 41.1744ZM119.566 46.1563C118.663 46.1563 117.847 45.9537 117.118 45.5487C116.389 45.1321 115.816 44.5535 115.4 43.8129C114.983 43.0607 114.775 42.1928 114.775 41.2091C114.775 40.237 114.989 39.3749 115.417 38.6227C115.845 37.8705 116.43 37.2919 117.17 36.8869C117.911 36.4818 118.738 36.2793 119.652 36.2793C120.567 36.2793 121.394 36.4818 122.135 36.8869C122.875 37.2919 123.46 37.8705 123.888 38.6227C124.316 39.3749 124.53 40.237 124.53 41.2091C124.53 42.1812 124.31 43.0433 123.871 43.7955C123.431 44.5477 122.829 45.1321 122.065 45.5487C121.313 45.9537 120.48 46.1563 119.566 46.1563ZM119.566 44.4378C120.075 44.4378 120.549 44.3163 120.989 44.0732C121.44 43.8302 121.805 43.4657 122.083 42.9797C122.36 42.4936 122.499 41.9035 122.499 41.2091C122.499 40.5148 122.366 39.9304 122.1 39.4559C121.834 38.9699 121.481 38.6054 121.041 38.3623C120.601 38.1193 120.127 37.9978 119.618 37.9978C119.109 37.9978 118.634 38.1193 118.194 38.3623C117.766 38.6054 117.425 38.9699 117.17 39.4559C116.916 39.9304 116.788 40.5148 116.788 41.2091C116.788 42.239 117.049 43.0375 117.569 43.6046C118.102 44.16 118.767 44.4378 119.566 44.4378ZM130.635 46.1563C129.732 46.1563 128.917 45.9537 128.187 45.5487C127.458 45.1321 126.886 44.5535 126.469 43.8129C126.052 43.0607 125.844 42.1928 125.844 41.2091C125.844 40.237 126.058 39.3749 126.486 38.6227C126.915 37.8705 127.499 37.2919 128.24 36.8869C128.98 36.4818 129.808 36.2793 130.722 36.2793C131.636 36.2793 132.463 36.4818 133.204 36.8869C133.945 37.2919 134.529 37.8705 134.957 38.6227C135.385 39.3749 135.599 40.237 135.599 41.2091C135.599 42.1812 135.38 43.0433 134.94 43.7955C134.5 44.5477 133.898 45.1321 133.135 45.5487C132.382 45.9537 131.549 46.1563 130.635 46.1563ZM130.635 44.4378C131.144 44.4378 131.619 44.3163 132.058 44.0732C132.51 43.8302 132.874 43.4657 133.152 42.9797C133.43 42.4936 133.569 41.9035 133.569 41.2091C133.569 40.5148 133.435 39.9304 133.169 39.4559C132.903 38.9699 132.55 38.6054 132.11 38.3623C131.671 38.1193 131.196 37.9978 130.687 37.9978C130.178 37.9978 129.703 38.1193 129.264 38.3623C128.836 38.6054 128.494 38.9699 128.24 39.4559C127.985 39.9304 127.858 40.5148 127.858 41.2091C127.858 42.239 128.118 43.0375 128.639 43.6046C129.171 44.16 129.837 44.4378 130.635 44.4378ZM141.34 41.2265L145.749 46H143.076L139.535 41.8861V46H137.556V33.1548H139.535V40.6189L143.006 36.4356H145.749L141.34 41.2265Z" fill="white"/>
<mask id="mask0" mask-type="alpha" maskUnits="userSpaceOnUse" x="36" y="31" width="10" height="18">
<path d="M45.4819 31.2829V34.7546H43.7461C43.1472 34.7546 42.8782 35.4576 42.8782 36.0565V38.2263H45.4819V41.6979H42.8782V48.6413H39.4065V41.6979H36.8027V38.2263H39.4065V34.7546C39.4065 33.8338 39.7723 32.9508 40.4233 32.2997C41.0744 31.6487 41.9574 31.2829 42.8782 31.2829H45.4819Z" fill="#5F5F5F"/>
</mask>
<g mask="url(#mask0)">
<rect x="20.3125" y="20" width="41.25" height="40" fill="white"/>
</g>
<defs>
<filter id="filter0_d" x="0.452888" y="0.452888" width="192.773" height="87.7734" filterUnits="userSpaceOnUse" color-interpolation-filters="sRGB">
<feFlood flood-opacity="0" result="BackgroundImageFix"/>
<feColorMatrix in="SourceAlpha" type="matrix" values="0 0 0 0 0 0 0 0 0 0 0 0 0 0 0 0 0 0 127 0"/>
<feOffset dx="4.3396" dy="4.3396"/>
<feGaussianBlur stdDeviation="6.94335"/>
<feColorMatrix type="matrix" values="0 0 0 0 0 0 0 0 0 0 0 0 0 0 0 0 0 0 0.2 0"/>
<feBlend mode="normal" in2="BackgroundImageFix" result="effect1_dropShadow"/>
<feBlend mode="normal" in="SourceGraphic" in2="effect1_dropShadow" result="shape"/>
</filter>
</defs>
</svg>
