<svg width="194" height="89" viewBox="0 0 194 89" fill="none" xmlns="http://www.w3.org/2000/svg">
<g filter="url(#filter0_d)">
<rect x="10" y="10" width="165" height="60" rx="4.3396" fill="white"/>
</g>
<path d="M59.8532 38.7358H58.4688V38.6666H43V45.3333H52.7135C51.2964 49.2141 47.4885 52 43 52C37.3049 52 32.6875 47.5225 32.6875 42C32.6875 36.4775 37.3049 32 43 32C45.6288 32 48.0205 32.9616 49.8415 34.5325L54.703 29.8183C51.6333 27.0441 47.5272 25.3333 43 25.3333C33.5082 25.3333 25.8125 32.7958 25.8125 42C25.8125 51.2041 33.5082 58.6666 43 58.6666C52.4918 58.6666 60.1875 51.2041 60.1875 42C60.1875 40.8825 60.0689 39.7916 59.8532 38.7358Z" fill="#FFC107"/>
<path d="M27.7939 34.2425L33.4409 38.2583C34.9689 34.59 38.6693 32 42.9997 32C45.6286 32 48.0202 32.9616 49.8412 34.5325L54.7027 29.8183C51.633 27.0441 47.5269 25.3333 42.9997 25.3333C36.398 25.3333 30.6729 28.9475 27.7939 34.2425Z" fill="#FF3D00"/>
<path d="M42.9994 58.6667C47.4389 58.6667 51.4729 57.0192 54.5228 54.34L49.2032 49.975C47.4196 51.2903 45.2402 52.0017 42.9994 52C38.5289 52 34.7331 49.2359 33.3031 45.3784L27.6982 49.5659C30.5428 54.9634 36.3195 58.6667 42.9994 58.6667Z" fill="#4CAF50"/>
<path d="M59.8532 38.7358H58.4688V38.6667H43V45.3333H52.7135C52.0357 47.1803 50.8146 48.7943 49.2013 49.9758L49.2038 49.9742L54.5234 54.3392C54.147 54.6708 60.1875 50.3333 60.1875 42C60.1875 40.8825 60.0689 39.7917 59.8532 38.7358Z" fill="#1976D2"/>
<path d="M85.0019 37.4076C84.6894 36.8059 84.2555 36.3546 83.7 36.0537C83.1445 35.7412 82.5023 35.585 81.7732 35.585C80.9748 35.585 80.2631 35.7644 79.6382 36.1231C79.0133 36.4818 78.5214 36.991 78.1627 37.6506C77.8155 38.3103 77.6419 39.074 77.6419 39.942C77.6419 40.8099 77.8155 41.5794 78.1627 42.2506C78.5214 42.9102 79.0133 43.4194 79.6382 43.7782C80.2631 44.1369 80.9748 44.3163 81.7732 44.3163C82.8495 44.3163 83.7232 44.0154 84.3944 43.4136C85.0655 42.8119 85.4764 41.996 85.6268 40.9661H81.0963V39.3865H87.7445V40.9314C87.6172 41.8687 87.2816 42.7309 86.7377 43.5178C86.2054 44.3047 85.5053 44.9354 84.6374 45.4098C83.781 45.8727 82.8263 46.1042 81.7732 46.1042C80.6392 46.1042 79.6034 45.8438 78.6661 45.3231C77.7287 44.7907 76.9823 44.0559 76.4269 43.1185C75.883 42.1812 75.611 41.1223 75.611 39.942C75.611 38.7616 75.883 37.7027 76.4269 36.7654C76.9823 35.828 77.7287 35.099 78.6661 34.5782C79.615 34.0459 80.6507 33.7797 81.7732 33.7797C83.0578 33.7797 84.1976 34.098 85.1928 34.7344C86.1996 35.3593 86.9287 36.2504 87.38 37.4076H85.0019ZM93.8449 46.1563C92.9423 46.1563 92.1264 45.9537 91.3974 45.5487C90.6683 45.1321 90.0955 44.5535 89.6789 43.8129C89.2623 43.0607 89.054 42.1928 89.054 41.2091C89.054 40.237 89.2681 39.3749 89.6963 38.6227C90.1244 37.8705 90.7088 37.2919 91.4495 36.8869C92.1901 36.4818 93.0175 36.2793 93.9317 36.2793C94.8459 36.2793 95.6733 36.4818 96.4139 36.8869C97.1546 37.2919 97.739 37.8705 98.1671 38.6227C98.5953 39.3749 98.8094 40.237 98.8094 41.2091C98.8094 42.1812 98.5895 43.0433 98.1498 43.7955C97.71 44.5477 97.1083 45.1321 96.3445 45.5487C95.5923 45.9537 94.7591 46.1563 93.8449 46.1563ZM93.8449 44.4378C94.3541 44.4378 94.8286 44.3163 95.2683 44.0732C95.7196 43.8302 96.0841 43.4657 96.3619 42.9797C96.6396 42.4936 96.7785 41.9035 96.7785 41.2091C96.7785 40.5148 96.6454 39.9304 96.3792 39.4559C96.1131 38.9699 95.7601 38.6054 95.3204 38.3623C94.8806 38.1193 94.4062 37.9978 93.897 37.9978C93.3878 37.9978 92.9133 38.1193 92.4736 38.3623C92.0454 38.6054 91.704 38.9699 91.4495 39.4559C91.1949 39.9304 91.0676 40.5148 91.0676 41.2091C91.0676 42.239 91.3279 43.0375 91.8487 43.6046C92.381 44.16 93.0464 44.4378 93.8449 44.4378ZM104.914 46.1563C104.012 46.1563 103.196 45.9537 102.467 45.5487C101.738 45.1321 101.165 44.5535 100.748 43.8129C100.332 43.0607 100.123 42.1928 100.123 41.2091C100.123 40.237 100.337 39.3749 100.766 38.6227C101.194 37.8705 101.778 37.2919 102.519 36.8869C103.259 36.4818 104.087 36.2793 105.001 36.2793C105.915 36.2793 106.743 36.4818 107.483 36.8869C108.224 37.2919 108.808 37.8705 109.237 38.6227C109.665 39.3749 109.879 40.237 109.879 41.2091C109.879 42.1812 109.659 43.0433 109.219 43.7955C108.779 44.5477 108.178 45.1321 107.414 45.5487C106.662 45.9537 105.828 46.1563 104.914 46.1563ZM104.914 44.4378C105.423 44.4378 105.898 44.3163 106.338 44.0732C106.789 43.8302 107.154 43.4657 107.431 42.9797C107.709 42.4936 107.848 41.9035 107.848 41.2091C107.848 40.5148 107.715 39.9304 107.449 39.4559C107.182 38.9699 106.829 38.6054 106.39 38.3623C105.95 38.1193 105.476 37.9978 104.966 37.9978C104.457 37.9978 103.983 38.1193 103.543 38.3623C103.115 38.6054 102.773 38.9699 102.519 39.4559C102.264 39.9304 102.137 40.5148 102.137 41.2091C102.137 42.239 102.397 43.0375 102.918 43.6046C103.45 44.16 104.116 44.4378 104.914 44.4378ZM115.689 36.2793C116.429 36.2793 117.083 36.4298 117.65 36.7307C118.229 37.02 118.68 37.3845 119.004 37.8242V36.4356H121V46.1563C121 47.0357 120.815 47.8169 120.445 48.4996C120.074 49.194 119.536 49.7379 118.83 50.1313C118.136 50.5248 117.303 50.7215 116.331 50.7215C115.035 50.7215 113.958 50.4148 113.102 49.8015C112.246 49.1998 111.76 48.3781 111.644 47.3366H113.606C113.756 47.8342 114.074 48.2335 114.56 48.5344C115.058 48.8468 115.648 49.003 116.331 49.003C117.129 49.003 117.772 48.76 118.258 48.274C118.755 47.7879 119.004 47.082 119.004 46.1563V44.5593C118.668 45.0106 118.211 45.3925 117.633 45.7049C117.066 46.0058 116.418 46.1563 115.689 46.1563C114.855 46.1563 114.092 45.948 113.397 45.5314C112.714 45.1032 112.171 44.513 111.766 43.7608C111.372 42.997 111.175 42.1349 111.175 41.1744C111.175 40.2139 111.372 39.3633 111.766 38.6227C112.171 37.8821 112.714 37.3093 113.397 36.9042C114.092 36.4876 114.855 36.2793 115.689 36.2793ZM119.004 41.2091C119.004 40.5495 118.865 39.9767 118.587 39.4906C118.321 39.0046 117.968 38.6343 117.529 38.3797C117.089 38.1251 116.614 37.9978 116.105 37.9978C115.596 37.9978 115.121 38.1251 114.682 38.3797C114.242 38.6227 113.883 38.9872 113.606 39.4733C113.339 39.9477 113.206 40.5148 113.206 41.1744C113.206 41.834 113.339 42.4126 113.606 42.9102C113.883 43.4078 114.242 43.7897 114.682 44.0559C115.133 44.3105 115.608 44.4378 116.105 44.4378C116.614 44.4378 117.089 44.3105 117.529 44.0559C117.968 43.8013 118.321 43.431 118.587 42.945C118.865 42.4473 119.004 41.8687 119.004 41.2091ZM125.578 33.1548V46H123.599V33.1548H125.578ZM136.942 40.9835C136.942 41.3422 136.919 41.6662 136.873 41.9555H129.565C129.623 42.7193 129.906 43.3326 130.416 43.7955C130.925 44.2584 131.55 44.4899 132.29 44.4899C133.355 44.4899 134.107 44.0443 134.547 43.1533H136.682C136.393 44.0327 135.866 44.756 135.102 45.3231C134.35 45.8785 133.413 46.1563 132.29 46.1563C131.376 46.1563 130.554 45.9537 129.825 45.5487C129.108 45.1321 128.541 44.5535 128.124 43.8129C127.719 43.0607 127.517 42.1928 127.517 41.2091C127.517 40.2255 127.713 39.3633 128.107 38.6227C128.512 37.8705 129.073 37.2919 129.791 36.8869C130.52 36.4818 131.353 36.2793 132.29 36.2793C133.193 36.2793 133.997 36.4761 134.703 36.8695C135.409 37.263 135.959 37.8184 136.352 38.5359C136.746 39.2418 136.942 40.0577 136.942 40.9835ZM134.877 40.3586C134.865 39.6295 134.605 39.0451 134.095 38.6054C133.586 38.1656 132.956 37.9457 132.203 37.9457C131.521 37.9457 130.936 38.1656 130.45 38.6054C129.964 39.0335 129.675 39.6179 129.582 40.3586H134.877Z" fill="#4F4F4F"/>
<defs>
<filter id="filter0_d" x="0.452888" y="0.452888" width="192.773" height="87.7734" filterUnits="userSpaceOnUse" color-interpolation-filters="sRGB">
<feFlood flood-opacity="0" result="BackgroundImageFix"/>
<feColorMatrix in="SourceAlpha" type="matrix" values="0 0 0 0 0 0 0 0 0 0 0 0 0 0 0 0 0 0 127 0"/>
<feOffset dx="4.3396" dy="4.3396"/>
<feGaussianBlur stdDeviation="6.94335"/>
<feColorMatrix type="matrix" values="0 0 0 0 0 0 0 0 0 0 0 0 0 0 0 0 0 0 0.1 0"/>
<feBlend mode="normal" in2="BackgroundImageFix" result="effect1_dropShadow"/>
<feBlend mode="normal" in="SourceGraphic" in2="effect1_dropShadow" result="shape"/>
</filter>
</defs>
</svg>
