<svg width="194" height="89" viewBox="0 0 194 89" fill="none" xmlns="http://www.w3.org/2000/svg">
<g filter="url(#filter0_d)">
<rect x="10.5" y="10" width="165" height="60" rx="4.3396" fill="white"/>
</g>
<path d="M60.3532 38.7365H58.9688V38.6673H43.5V45.334H53.2135C51.7964 49.2148 47.9885 52.0006 43.5 52.0006C37.8049 52.0006 33.1875 47.5231 33.1875 42.0006C33.1875 36.4781 37.8049 32.0006 43.5 32.0006C46.1288 32.0006 48.5205 32.9623 50.3415 34.5331L55.203 29.819C52.1333 27.0448 48.0272 25.334 43.5 25.334C34.0082 25.334 26.3125 32.7965 26.3125 42.0006C26.3125 51.2048 34.0082 58.6673 43.5 58.6673C52.9918 58.6673 60.6875 51.2048 60.6875 42.0006C60.6875 40.8831 60.5689 39.7923 60.3532 38.7365Z" fill="#FFC107"/>
<path d="M28.2949 34.2431L33.9419 38.259C35.4698 34.5907 39.1703 32.0007 43.5007 32.0007C46.1295 32.0007 48.5212 32.9623 50.3422 34.5331L55.2037 29.819C52.134 27.0448 48.0279 25.334 43.5007 25.334C36.899 25.334 31.1738 28.9482 28.2949 34.2431Z" fill="#FF3D00"/>
<path d="M43.5004 58.6663C47.9399 58.6663 51.9738 57.0188 55.0237 54.3396L49.7042 49.9746C47.9206 51.2899 45.7412 52.0013 43.5004 51.9996C39.0299 51.9996 35.2341 49.2354 33.8041 45.3779L28.1992 49.5654C31.0437 54.9629 36.8205 58.6663 43.5004 58.6663Z" fill="#4CAF50"/>
<path d="M60.3532 38.7362H58.9688V38.667H43.5V45.3337H53.2135C52.5357 47.1807 51.3146 48.7946 49.7013 49.9762L49.7038 49.9745L55.0234 54.3395C54.647 54.6712 60.6875 50.3337 60.6875 42.0003C60.6875 40.8828 60.5689 39.792 60.3532 38.7362Z" fill="#1976D2"/>
<path d="M85.5019 37.4076C85.1894 36.8058 84.7555 36.3545 84.2 36.0536C83.6445 35.7412 83.0023 35.585 82.2732 35.585C81.4748 35.585 80.7631 35.7643 80.1382 36.1231C79.5133 36.4818 79.0214 36.991 78.6627 37.6506C78.3155 38.3102 78.1419 39.074 78.1419 39.9419C78.1419 40.8098 78.3155 41.5794 78.6627 42.2506C79.0214 42.9102 79.5133 43.4194 80.1382 43.7781C80.7631 44.1369 81.4748 44.3162 82.2732 44.3162C83.3495 44.3162 84.2232 44.0154 84.8944 43.4136C85.5655 42.8118 85.9764 41.996 86.1268 40.9661H81.5963V39.3865H88.2445V40.9314C88.1172 41.8687 87.7816 42.7308 87.2377 43.5178C86.7054 44.3047 86.0053 44.9354 85.1374 45.4098C84.281 45.8727 83.3263 46.1042 82.2732 46.1042C81.1392 46.1042 80.1034 45.8438 79.1661 45.323C78.2287 44.7907 77.4823 44.0559 76.9269 43.1185C76.383 42.1812 76.111 41.1223 76.111 39.9419C76.111 38.7616 76.383 37.7027 76.9269 36.7653C77.4823 35.828 78.2287 35.0989 79.1661 34.5782C80.115 34.0459 81.1507 33.7797 82.2732 33.7797C83.5578 33.7797 84.6976 34.0979 85.6928 34.7344C86.6996 35.3593 87.4287 36.2504 87.88 37.4076H85.5019ZM94.3449 46.1562C93.4423 46.1562 92.6264 45.9537 91.8974 45.5487C91.1683 45.1321 90.5955 44.5535 90.1789 43.8128C89.7623 43.0606 89.554 42.1927 89.554 41.2091C89.554 40.237 89.7681 39.3749 90.1963 38.6227C90.6244 37.8705 91.2088 37.2919 91.9495 36.8868C92.6901 36.4818 93.5175 36.2793 94.4317 36.2793C95.3459 36.2793 96.1733 36.4818 96.9139 36.8868C97.6546 37.2919 98.239 37.8705 98.6671 38.6227C99.0953 39.3749 99.3094 40.237 99.3094 41.2091C99.3094 42.1812 99.0895 43.0433 98.6498 43.7955C98.21 44.5477 97.6083 45.1321 96.8445 45.5487C96.0923 45.9537 95.2591 46.1562 94.3449 46.1562ZM94.3449 44.4377C94.8541 44.4377 95.3286 44.3162 95.7683 44.0732C96.2196 43.8302 96.5841 43.4657 96.8619 42.9796C97.1396 42.4936 97.2785 41.9034 97.2785 41.2091C97.2785 40.5147 97.1454 39.9304 96.8792 39.4559C96.6131 38.9699 96.2601 38.6053 95.8204 38.3623C95.3806 38.1193 94.9062 37.9978 94.397 37.9978C93.8878 37.9978 93.4133 38.1193 92.9736 38.3623C92.5454 38.6053 92.204 38.9699 91.9495 39.4559C91.6949 39.9304 91.5676 40.5147 91.5676 41.2091C91.5676 42.239 91.8279 43.0375 92.3487 43.6045C92.881 44.16 93.5464 44.4377 94.3449 44.4377ZM105.414 46.1562C104.512 46.1562 103.696 45.9537 102.967 45.5487C102.238 45.1321 101.665 44.5535 101.248 43.8128C100.832 43.0606 100.623 42.1927 100.623 41.2091C100.623 40.237 100.837 39.3749 101.266 38.6227C101.694 37.8705 102.278 37.2919 103.019 36.8868C103.759 36.4818 104.587 36.2793 105.501 36.2793C106.415 36.2793 107.243 36.4818 107.983 36.8868C108.724 37.2919 109.308 37.8705 109.737 38.6227C110.165 39.3749 110.379 40.237 110.379 41.2091C110.379 42.1812 110.159 43.0433 109.719 43.7955C109.279 44.5477 108.678 45.1321 107.914 45.5487C107.162 45.9537 106.328 46.1562 105.414 46.1562ZM105.414 44.4377C105.923 44.4377 106.398 44.3162 106.838 44.0732C107.289 43.8302 107.654 43.4657 107.931 42.9796C108.209 42.4936 108.348 41.9034 108.348 41.2091C108.348 40.5147 108.215 39.9304 107.949 39.4559C107.682 38.9699 107.329 38.6053 106.89 38.3623C106.45 38.1193 105.976 37.9978 105.466 37.9978C104.957 37.9978 104.483 38.1193 104.043 38.3623C103.615 38.6053 103.273 38.9699 103.019 39.4559C102.764 39.9304 102.637 40.5147 102.637 41.2091C102.637 42.239 102.897 43.0375 103.418 43.6045C103.95 44.16 104.616 44.4377 105.414 44.4377ZM116.189 36.2793C116.929 36.2793 117.583 36.4297 118.15 36.7306C118.729 37.0199 119.18 37.3845 119.504 37.8242V36.4355H121.5V46.1562C121.5 47.0357 121.315 47.8168 120.945 48.4996C120.574 49.1939 120.036 49.7378 119.33 50.1313C118.636 50.5248 117.803 50.7215 116.831 50.7215C115.535 50.7215 114.458 50.4148 113.602 49.8015C112.746 49.1997 112.26 48.3781 112.144 47.3366H114.106C114.256 47.8342 114.574 48.2334 115.06 48.5343C115.558 48.8468 116.148 49.003 116.831 49.003C117.629 49.003 118.272 48.76 118.758 48.2739C119.255 47.7879 119.504 47.082 119.504 46.1562V44.5593C119.168 45.0106 118.711 45.3925 118.133 45.7049C117.566 46.0058 116.918 46.1562 116.189 46.1562C115.355 46.1562 114.592 45.9479 113.897 45.5313C113.214 45.1032 112.671 44.513 112.266 43.7608C111.872 42.997 111.675 42.1349 111.675 41.1744C111.675 40.2139 111.872 39.3633 112.266 38.6227C112.671 37.8821 113.214 37.3092 113.897 36.9042C114.592 36.4876 115.355 36.2793 116.189 36.2793ZM119.504 41.2091C119.504 40.5495 119.365 39.9766 119.087 39.4906C118.821 39.0046 118.468 38.6343 118.029 38.3797C117.589 38.1251 117.114 37.9978 116.605 37.9978C116.096 37.9978 115.621 38.1251 115.182 38.3797C114.742 38.6227 114.383 38.9872 114.106 39.4732C113.839 39.9477 113.706 40.5148 113.706 41.1744C113.706 41.834 113.839 42.4126 114.106 42.9102C114.383 43.4078 114.742 43.7897 115.182 44.0559C115.633 44.3105 116.108 44.4377 116.605 44.4377C117.114 44.4377 117.589 44.3105 118.029 44.0559C118.468 43.8013 118.821 43.431 119.087 42.9449C119.365 42.4473 119.504 41.8687 119.504 41.2091ZM126.078 33.1548V46H124.099V33.1548H126.078ZM137.442 40.9834C137.442 41.3422 137.419 41.6662 137.373 41.9555H130.065C130.123 42.7193 130.406 43.3326 130.916 43.7955C131.425 44.2584 132.05 44.4898 132.79 44.4898C133.855 44.4898 134.607 44.0443 135.047 43.1532H137.182C136.893 44.0327 136.366 44.756 135.602 45.323C134.85 45.8785 133.913 46.1562 132.79 46.1562C131.876 46.1562 131.054 45.9537 130.325 45.5487C129.608 45.1321 129.041 44.5535 128.624 43.8128C128.219 43.0606 128.017 42.1927 128.017 41.2091C128.017 40.2254 128.213 39.3633 128.607 38.6227C129.012 37.8705 129.573 37.2919 130.291 36.8868C131.02 36.4818 131.853 36.2793 132.79 36.2793C133.693 36.2793 134.497 36.476 135.203 36.8695C135.909 37.2629 136.459 37.8184 136.852 38.5359C137.246 39.2418 137.442 40.0576 137.442 40.9834ZM135.377 40.3585C135.365 39.6295 135.105 39.0451 134.595 38.6053C134.086 38.1656 133.456 37.9457 132.703 37.9457C132.021 37.9457 131.436 38.1656 130.95 38.6053C130.464 39.0335 130.175 39.6179 130.082 40.3585H135.377Z" fill="#4F4F4F"/>
<defs>
<filter id="filter0_d" x="0.952888" y="0.452888" width="192.773" height="87.7734" filterUnits="userSpaceOnUse" color-interpolation-filters="sRGB">
<feFlood flood-opacity="0" result="BackgroundImageFix"/>
<feColorMatrix in="SourceAlpha" type="matrix" values="0 0 0 0 0 0 0 0 0 0 0 0 0 0 0 0 0 0 127 0"/>
<feOffset dx="4.3396" dy="4.3396"/>
<feGaussianBlur stdDeviation="6.94335"/>
<feColorMatrix type="matrix" values="0 0 0 0 0 0 0 0 0 0 0 0 0 0 0 0 0 0 0.1 0"/>
<feBlend mode="normal" in2="BackgroundImageFix" result="effect1_dropShadow"/>
<feBlend mode="normal" in="SourceGraphic" in2="effect1_dropShadow" result="shape"/>
</filter>
</defs>
</svg>
