<svg width="33" height="33" viewBox="0 0 33 33" fill="none" xmlns="http://www.w3.org/2000/svg">
<g clip-path="url(#clip0)">
<g clip-path="url(#clip1)">
<path d="M16.5004 3.59237C20.7046 3.59237 21.2025 3.60843 22.8629 3.68418C24.3981 3.75425 25.2317 4.01068 25.7866 4.22631C26.4704 4.47872 27.0891 4.88118 27.5969 5.40412C28.1199 5.912 28.5223 6.53062 28.7747 7.2145C28.9904 7.76931 29.2469 8.603 29.3169 10.1381C29.3926 11.7984 29.4087 12.2964 29.4087 16.5006C29.4087 20.7049 29.3926 21.2027 29.3169 22.8631C29.2468 24.3982 28.9903 25.2319 28.7747 25.7867C28.5128 26.4658 28.1116 27.0825 27.5969 27.5971C27.0823 28.1118 26.4656 28.513 25.7866 28.7749C25.2317 28.9906 24.3981 29.2471 22.8629 29.3171C21.2029 29.3928 20.705 29.4089 16.5004 29.4089C12.2959 29.4089 11.7981 29.3928 10.1379 29.3171C8.60281 29.247 7.76918 28.9905 7.21431 28.7749C6.53043 28.5225 5.91181 28.1201 5.40393 27.5971C4.881 27.0892 4.47853 26.4706 4.22612 25.7867C4.0105 25.2319 3.754 24.3982 3.684 22.8631C3.60825 21.2029 3.59218 20.7049 3.59218 16.5006C3.59218 12.2964 3.60825 11.7986 3.684 10.1381C3.75406 8.603 4.0105 7.76937 4.22612 7.2145C4.47856 6.53058 4.88107 5.91194 5.40406 5.40406C5.91194 4.88112 6.53055 4.47866 7.21443 4.22625C7.76925 4.01062 8.60293 3.75412 10.1381 3.68412C11.7984 3.60837 12.2963 3.59231 16.5006 3.59231L16.5004 3.59237ZM16.5006 0.755371C12.2244 0.755371 11.6881 0.773496 10.0089 0.850121C8.333 0.926621 7.1885 1.19275 6.187 1.582C5.13641 1.97735 4.1847 2.59711 3.39825 3.39806C2.59712 4.18447 1.97718 5.13618 1.58168 6.18681C1.19275 7.18837 0.926621 8.33287 0.850434 10.0088C0.773496 11.6879 0.755371 12.2243 0.755371 16.5004C0.755371 20.7766 0.773496 21.3129 0.850434 22.9921C0.926934 24.668 1.19306 25.8125 1.58231 26.814C1.97766 27.8646 2.59742 28.8163 3.39837 29.6027C4.18483 30.4037 5.13653 31.0235 6.18712 31.4188C7.18868 31.8081 8.33318 32.0742 10.0091 32.1507C11.6884 32.2273 12.2246 32.2454 16.5007 32.2454C20.7767 32.2454 21.3132 32.2273 22.9923 32.1507C24.6682 32.0742 25.8127 31.8081 26.8142 31.4188C27.8602 31.0143 28.81 30.3957 29.603 29.6028C30.396 28.8098 31.0145 27.8599 31.4191 26.814C31.8083 25.8124 32.0744 24.6679 32.1509 22.9921C32.2276 21.3127 32.2457 20.7765 32.2457 16.5004C32.2457 12.2244 32.2276 11.6879 32.1509 10.0088C32.0744 8.33287 31.8083 7.18837 31.4191 6.18687C31.0237 5.13628 30.4039 4.18458 29.603 3.39812C28.8165 2.59701 27.8647 1.97712 26.8141 1.58168C25.8125 1.19275 24.668 0.926621 22.9921 0.850434C21.3129 0.773496 20.7766 0.755371 16.5004 0.755371H16.5006Z" fill="#19303B"/>
<path d="M16.4999 8.41455C14.9007 8.41455 13.3375 8.88875 12.0079 9.77717C10.6783 10.6656 9.64197 11.9284 9.03001 13.4057C8.41805 14.8831 8.25794 16.5088 8.56991 18.0772C8.88189 19.6456 9.65194 21.0863 10.7827 22.217C11.9134 23.3478 13.3541 24.1178 14.9225 24.4298C16.4909 24.7418 18.1166 24.5817 19.594 23.9697C21.0714 23.3578 22.3341 22.3214 23.2226 20.9918C24.111 19.6622 24.5852 18.099 24.5852 16.4999C24.5852 14.3555 23.7333 12.299 22.217 10.7827C20.7008 9.26639 18.6442 8.41455 16.4999 8.41455ZM16.4999 21.7482C15.4619 21.7482 14.4472 21.4403 13.5841 20.8636C12.721 20.2869 12.0483 19.4673 11.6511 18.5083C11.2539 17.5493 11.15 16.494 11.3525 15.4759C11.555 14.4579 12.0548 13.5227 12.7888 12.7887C13.5228 12.0547 14.458 11.5549 15.4761 11.3524C16.4941 11.1499 17.5494 11.2538 18.5084 11.6511C19.4674 12.0483 20.2871 12.721 20.8637 13.5841C21.4404 14.4471 21.7482 15.4618 21.7482 16.4999C21.7482 17.8918 21.1953 19.2267 20.211 20.211C19.2267 21.1952 17.8918 21.7482 16.4999 21.7482Z" fill="#19303B"/>
<path d="M24.905 9.98481C25.9485 9.98481 26.7944 9.13891 26.7944 8.09543C26.7944 7.05196 25.9485 6.20605 24.905 6.20605C23.8615 6.20605 23.0156 7.05196 23.0156 8.09543C23.0156 9.13891 23.8615 9.98481 24.905 9.98481Z" fill="#19303B"/>
</g>
</g>
<defs>
<clipPath id="clip0">
<rect width="32" height="32" fill="white" transform="translate(0.5 0.5)"/>
</clipPath>
<clipPath id="clip1">
<rect width="32" height="32" fill="white" transform="translate(0.5 0.5)"/>
</clipPath>
</defs>
</svg>
