<svg width="98" height="71" viewBox="0 0 98 71" fill="none" xmlns="http://www.w3.org/2000/svg">
<g filter="url(#filter0_d)">
<path d="M5.25 6.5C5.25 5.94771 5.69772 5.5 6.25 5.5H91.75C92.3023 5.5 92.75 5.94772 92.75 6.5V64.5C92.75 65.0523 92.3023 65.5 91.75 65.5H6.25C5.69772 65.5 5.25 65.0523 5.25 64.5V6.5Z" fill="white"/>
<path fill-rule="evenodd" clip-rule="evenodd" d="M31.8131 46.1456H26.5123L22.5374 30.9809C22.3487 30.2834 21.9481 29.6667 21.3589 29.376C19.8883 28.6456 18.2678 28.0643 16.5 27.7711V27.1873H25.0392C26.2177 27.1873 27.1016 28.0643 27.2489 29.0828L29.3114 40.0216L34.6096 27.1873H39.7631L31.8131 46.1456ZM42.7094 46.1456H37.7032L41.8255 27.1873H46.8317L42.7094 46.1456ZM53.3084 32.4393C53.4557 31.4182 54.3396 30.8344 55.3708 30.8344C56.9913 30.6878 58.7565 30.9809 60.2297 31.7089L61.1136 27.627C59.6404 27.0432 58.0199 26.75 56.5494 26.75C51.6905 26.75 48.1549 29.376 48.1549 33.0206C48.1549 35.7932 50.6593 37.249 52.4271 38.126C54.3396 39.0005 55.0762 39.5844 54.9289 40.4589C54.9289 41.7706 53.4557 42.3545 51.9851 42.3545C50.2173 42.3545 48.4496 41.9172 46.8317 41.1868L45.9478 45.2711C47.7156 45.999 49.6281 46.2922 51.3959 46.2922C56.844 46.4363 60.2297 43.8128 60.2297 39.875C60.2297 34.9162 53.3084 34.6255 53.3084 32.4393ZM77.75 46.1456L73.775 27.1873H69.5055C68.6216 27.1873 67.7377 27.7711 67.443 28.6456L60.0824 46.1456H65.2359L66.2645 43.3755H72.5965L73.1858 46.1456H77.75ZM70.242 32.2927L71.7126 39.4378H67.5903L70.242 32.2927Z" fill="#172B85"/>
</g>
<defs>
<filter id="filter0_d" x="0.25" y="0.5" width="97.5" height="70" filterUnits="userSpaceOnUse" color-interpolation-filters="sRGB">
<feFlood flood-opacity="0" result="BackgroundImageFix"/>
<feColorMatrix in="SourceAlpha" type="matrix" values="0 0 0 0 0 0 0 0 0 0 0 0 0 0 0 0 0 0 127 0"/>
<feOffset/>
<feGaussianBlur stdDeviation="2.5"/>
<feColorMatrix type="matrix" values="0 0 0 0 0 0 0 0 0 0 0 0 0 0 0 0 0 0 0.25 0"/>
<feBlend mode="normal" in2="BackgroundImageFix" result="effect1_dropShadow"/>
<feBlend mode="normal" in="SourceGraphic" in2="effect1_dropShadow" result="shape"/>
</filter>
</defs>
</svg>
