<svg width="32" height="34" viewBox="0 0 32 34" fill="none" xmlns="http://www.w3.org/2000/svg">
<path d="M30.9537 9.9375H8.03176C7.92675 9.93346 7.82742 9.88888 7.75458 9.81313C7.68174 9.73738 7.64106 9.63634 7.64114 9.53125V6.5625C7.63908 5.88332 7.77084 5.21039 8.02885 4.58212C8.28687 3.95385 8.66609 3.38255 9.14489 2.90085C9.62369 2.41914 10.1927 2.03647 10.8194 1.77466C11.4461 1.51286 12.1182 1.37705 12.7974 1.375H26.188C27.5611 1.37914 28.8766 1.9275 29.8461 2.8999C30.8155 3.87229 31.3599 5.18939 31.3599 6.5625V9.53125C31.3599 9.639 31.3171 9.74232 31.2409 9.81851C31.1647 9.8947 31.0614 9.9375 30.9537 9.9375V9.9375ZM8.43803 9.125H30.5474V6.5625C30.5494 5.98871 30.4382 5.42015 30.22 4.88944C30.0019 4.35873 29.6811 3.87632 29.2761 3.46985C28.8711 3.06339 28.3898 2.74088 27.8599 2.52083C27.33 2.30077 26.7618 2.1875 26.188 2.1875H12.8755C12.3017 2.1875 11.7336 2.30077 11.2036 2.52083C10.6737 2.74088 10.1924 3.06339 9.78743 3.46985C9.38242 3.87632 9.06164 4.35873 8.84348 4.88944C8.62532 5.42015 8.51408 5.98871 8.51613 6.5625L8.43803 9.125Z" stroke="#19303B"/>
<path d="M8.03123 32.9062H1.03127C0.926174 32.9063 0.825112 32.8657 0.749359 32.7928C0.673606 32.72 0.629042 32.6206 0.625 32.5156V9.53125C0.625 9.42351 0.667784 9.32018 0.743971 9.24399C0.820158 9.1678 0.923521 9.125 1.03127 9.125H8.03123C8.13898 9.125 8.24234 9.1678 8.31853 9.24399C8.39472 9.32018 8.4375 9.42351 8.4375 9.53125C8.4375 9.639 8.39472 9.74233 8.31853 9.81851C8.24234 9.8947 8.13898 9.9375 8.03123 9.9375H1.43748V32.1094H8.03123C8.09015 32.0976 8.15096 32.0991 8.20924 32.1137C8.26751 32.1283 8.32182 32.1557 8.36826 32.1938C8.4147 32.2319 8.45211 32.2798 8.47779 32.3341C8.50348 32.3884 8.5168 32.4477 8.5168 32.5078C8.5168 32.5679 8.50348 32.6272 8.47779 32.6815C8.45211 32.7358 8.4147 32.7838 8.36826 32.8219C8.32182 32.86 8.26751 32.8873 8.20924 32.9019C8.15096 32.9165 8.09015 32.918 8.03123 32.9062V32.9062Z" stroke="#19303B"/>
<path d="M25.8115 32.9063H8.03024C7.93807 32.8879 7.85511 32.8382 7.79549 32.7655C7.73588 32.6929 7.70327 32.6018 7.70327 32.5078C7.70327 32.4138 7.73588 32.3228 7.79549 32.2501C7.85511 32.1774 7.93807 32.1277 8.03024 32.1094H25.8115C27.0547 32.1094 28.247 31.6155 29.126 30.7364C30.0051 29.8574 30.499 28.6651 30.499 27.4219V9.9375H8.03024C7.9225 9.9375 7.81918 9.8947 7.74299 9.81851C7.66681 9.74233 7.62402 9.639 7.62402 9.53125C7.62402 9.42351 7.66681 9.32018 7.74299 9.24399C7.81918 9.1678 7.9225 9.125 8.03024 9.125H30.9521C31.0599 9.125 31.1632 9.1678 31.2394 9.24399C31.3156 9.32018 31.3584 9.42351 31.3584 9.53125V27.3438C31.3604 28.0735 31.2185 28.7965 30.9406 29.4712C30.6628 30.146 30.2545 30.7594 29.7393 31.2761C29.224 31.7928 28.6118 32.2028 27.9378 32.4825C27.2638 32.7623 26.5412 32.9063 25.8115 32.9063V32.9063Z" stroke="#19303B"/>
<path d="M6.2656 23.3901C5.79522 23.3932 5.33452 23.2565 4.9419 22.9974C4.54929 22.7384 4.24244 22.3685 4.06028 21.9348C3.87812 21.5011 3.82889 21.0231 3.91875 20.5614C4.00862 20.0997 4.23359 19.675 4.56511 19.3413C4.89663 19.0076 5.31977 18.7798 5.7809 18.6869C6.24203 18.594 6.72035 18.6401 7.15524 18.8194C7.59012 18.9987 7.96197 19.3031 8.22364 19.694C8.48531 20.0849 8.62498 20.5447 8.62499 21.0151C8.62501 21.6423 8.37694 22.244 7.93492 22.689C7.49289 23.1339 6.89278 23.386 6.2656 23.3901V23.3901ZM6.2656 19.4682C5.8512 19.4682 5.4538 19.6328 5.16077 19.9259C4.86775 20.2189 4.7031 20.6163 4.7031 21.0307C4.7031 21.4451 4.86775 21.8425 5.16077 22.1356C5.4538 22.4286 5.8512 22.5932 6.2656 22.5932C6.68 22.5932 7.07746 22.4286 7.37048 22.1356C7.66351 21.8425 7.8281 21.4451 7.8281 21.0307C7.8281 20.6163 7.66351 20.2189 7.37048 19.9259C7.07746 19.6328 6.68 19.4682 6.2656 19.4682Z" stroke="#19303B"/>
</svg>
