<svg width="99" height="71" viewBox="0 0 99 71" fill="none" xmlns="http://www.w3.org/2000/svg">
<g filter="url(#filter0_d)">
<path d="M5.75 6.5C5.75 5.94771 6.19772 5.5 6.75 5.5H92.25C92.8023 5.5 93.25 5.94772 93.25 6.5V64.5C93.25 65.0523 92.8023 65.5 92.25 65.5H6.75C6.19772 65.5 5.75 65.0523 5.75 64.5V6.5Z" fill="white"/>
<path d="M49.1276 22.0321C49.3665 21.9363 49.6332 21.9363 49.8721 22.0321L63.3402 27.4342C63.7194 27.5863 63.9679 27.9537 63.9679 28.3623L63.9679 28.6558C63.9679 29.1885 63.5361 29.6203 63.0034 29.6203L62.8087 29.6203C62.3835 29.6203 62.0413 30.0109 61.7299 30.3004C61.5239 30.4918 61.2803 30.5875 60.9989 30.5875L38.0007 30.5875C37.7194 30.5875 37.4757 30.4918 37.2698 30.3004C36.9583 30.0109 36.6161 29.6203 36.1909 29.6203L35.9963 29.6203C35.4636 29.6203 35.0317 29.1885 35.0317 28.6558L35.0317 28.3623C35.0317 27.9537 35.2803 27.5863 35.6595 27.4342L49.1276 22.0321ZM38.8899 32.5547C38.8899 32.0024 39.3376 31.5547 39.8899 31.5547L41.7481 31.5547C42.3003 31.5547 42.7481 32.0024 42.7481 32.5547L42.7481 42.1964C42.7481 42.7291 43.1799 43.161 43.7126 43.161C44.2453 43.161 44.6771 42.7291 44.6771 42.1964L44.6771 32.5547C44.6771 32.0024 45.1248 31.5547 45.6771 31.5547L47.5353 31.5547C48.0876 31.5547 48.5353 32.0024 48.5353 32.5547L48.5353 42.1964C48.5353 42.7291 48.9671 43.161 49.4998 43.161C50.0325 43.161 50.4644 42.7291 50.4644 42.1964L50.4644 32.5547C50.4644 32.0024 50.9121 31.5547 51.4644 31.5547L53.3225 31.5547C53.8748 31.5547 54.3225 32.0024 54.3225 32.5547L54.3225 42.1964C54.3225 42.7291 54.7544 43.161 55.2871 43.161C55.8198 43.161 56.2516 42.7291 56.2516 42.1964L56.2516 32.5547C56.2516 32.0024 56.6993 31.5547 57.2516 31.5547L59.1098 31.5547C59.662 31.5547 60.1098 32.0024 60.1098 32.5547L60.1098 42.2718C60.1098 42.7629 60.5079 43.161 60.9989 43.161C61.2803 43.161 61.5239 43.2567 61.7299 43.4481C61.9359 43.6395 62.0388 43.8662 62.0388 44.1282C62.0388 44.6623 61.6058 45.0953 61.0716 45.0953L37.928 45.0953C37.3938 45.0953 36.9608 44.6623 36.9608 44.1282C36.9608 43.8662 37.0638 43.6395 37.2698 43.4481C37.4757 43.2567 37.7194 43.161 38.0007 43.161C38.4918 43.161 38.8899 42.7629 38.8899 42.2718L38.8899 32.5547ZM62.928 46.0625C63.2093 46.0625 63.453 46.1582 63.659 46.3497C63.8649 46.5411 63.9679 46.7678 63.9679 47.0297L63.9679 47.9641C63.9679 48.5164 63.5202 48.9641 62.9679 48.9641L36.0317 48.9641C35.4795 48.9641 35.0317 48.5164 35.0317 47.9641L35.0317 47.0297C35.0317 46.7678 35.1347 46.5411 35.3407 46.3497C35.5467 46.1582 35.7903 46.0625 36.0716 46.0625L62.928 46.0625Z" fill="#19303B"/>
</g>
<defs>
<filter id="filter0_d" x="0.75" y="0.5" width="97.5" height="70" filterUnits="userSpaceOnUse" color-interpolation-filters="sRGB">
<feFlood flood-opacity="0" result="BackgroundImageFix"/>
<feColorMatrix in="SourceAlpha" type="matrix" values="0 0 0 0 0 0 0 0 0 0 0 0 0 0 0 0 0 0 127 0"/>
<feOffset/>
<feGaussianBlur stdDeviation="2.5"/>
<feColorMatrix type="matrix" values="0 0 0 0 0 0 0 0 0 0 0 0 0 0 0 0 0 0 0.25 0"/>
<feBlend mode="normal" in2="BackgroundImageFix" result="effect1_dropShadow"/>
<feBlend mode="normal" in="SourceGraphic" in2="effect1_dropShadow" result="shape"/>
</filter>
</defs>
</svg>
