<svg width="34" height="34" viewBox="0 0 34 34" fill="none" xmlns="http://www.w3.org/2000/svg">
<path d="M16.9531 32.9687C13.8268 32.9749 10.769 32.0533 8.16673 30.3206C5.5645 28.5879 3.53492 26.122 2.33496 23.2351C1.135 20.3483 0.818617 17.1703 1.42588 14.1035C2.03314 11.0367 3.53673 8.21908 5.74627 6.00734C7.95582 3.79561 10.772 2.28922 13.8381 1.67893C16.9043 1.06863 20.0826 1.38185 22.9707 2.57896C25.8587 3.77606 28.3266 5.8032 30.0619 8.40371C31.7972 11.0042 32.7218 14.0612 32.7187 17.1875C32.7146 21.369 31.0528 25.3782 28.0975 28.3364C25.1422 31.2946 21.1346 32.9604 16.9531 32.9687V32.9687ZM16.9531 2.18747C13.9851 2.18129 11.0819 3.05578 8.61107 4.70024C6.14023 6.3447 4.21278 8.68521 3.07267 11.4255C1.93256 14.1659 1.63105 17.1829 2.2063 20.0946C2.78154 23.0064 4.20768 25.6821 6.30422 27.783C8.40076 29.8839 11.0734 31.3156 13.984 31.8969C16.8946 32.4782 19.9122 32.183 22.6549 31.0486C25.3976 29.9142 27.7421 27.9917 29.3917 25.5243C31.0413 23.0569 31.9219 20.1555 31.9219 17.1875C31.9219 13.2146 30.3458 9.40405 27.5395 6.5919C24.7332 3.77975 20.926 2.19575 16.9531 2.18747V2.18747Z" stroke="#19303B"/>
<path d="M17.1484 18.5793C17.0448 18.5793 16.9455 18.5381 16.8722 18.4649C16.799 18.3916 16.7578 18.2923 16.7578 18.1887V8.11054C16.7461 8.05162 16.7476 7.99083 16.7622 7.93256C16.7768 7.87429 16.8041 7.81997 16.8422 7.77353C16.8803 7.7271 16.9282 7.68969 16.9825 7.66401C17.0369 7.63832 17.0962 7.625 17.1563 7.625C17.2163 7.625 17.2756 7.63832 17.33 7.66401C17.3843 7.68969 17.4322 7.7271 17.4703 7.77353C17.5084 7.81997 17.5357 7.87429 17.5503 7.93256C17.5649 7.99083 17.5664 8.05162 17.5547 8.11054V18.2199C17.5467 18.3208 17.4999 18.4146 17.4241 18.4816C17.3483 18.5486 17.2495 18.5836 17.1484 18.5793Z" stroke="#19303B"/>
<path d="M24.8362 18.5791H17.1487C17.0566 18.5608 16.9736 18.511 16.914 18.4384C16.8544 18.3657 16.8218 18.2746 16.8218 18.1807C16.8218 18.0867 16.8544 17.9956 16.914 17.9229C16.9736 17.8503 17.0566 17.8006 17.1487 17.7822H24.8362C24.8952 17.7705 24.9559 17.772 25.0142 17.7866C25.0725 17.8012 25.1268 17.8285 25.1732 17.8666C25.2197 17.9047 25.2571 17.9527 25.2828 18.007C25.3085 18.0613 25.3218 18.1206 25.3218 18.1807C25.3218 18.2407 25.3085 18.3001 25.2828 18.3544C25.2571 18.4087 25.2197 18.4566 25.1732 18.4947C25.1268 18.5328 25.0725 18.5601 25.0142 18.5747C24.9559 18.5893 25.1117 18.5748 25.0527 18.563L24.8362 18.5791Z" stroke="#19303B"/>
</svg>
