<svg width="165" height="120" viewBox="0 0 165 120" fill="none" xmlns="http://www.w3.org/2000/svg">
<g filter="url(#filter0_d)">
<path d="M10 11C10 10.4477 10.4477 10 11 10H154C154.552 10 155 10.4477 155 11V109C155 109.552 154.552 110 154 110H11C10.4477 110 10 109.552 10 109V11Z" fill="white"/>
<path d="M57.6472 88.0966H56.4632L56.4315 88.16C56.3998 88.2446 56.3575 88.3291 56.3258 88.4137C56.294 88.4983 56.2518 88.5829 56.2095 88.6569C55.9875 89.0903 55.6598 89.4074 55.2475 89.6083C54.8352 89.8091 54.3806 89.9043 53.8943 89.9043C53.4186 89.9043 53.0063 89.8303 52.6575 89.6717C52.3086 89.5237 52.0126 89.3123 51.7906 89.048C51.558 88.7837 51.3889 88.4771 51.2726 88.1071C51.1563 87.7371 51.1035 87.346 51.1035 86.9126C51.1035 86.5003 51.1563 86.1091 51.262 85.7391C51.3678 85.3797 51.5263 85.0626 51.7483 84.7983C51.9703 84.534 52.2452 84.3226 52.5835 84.164C52.9218 84.0054 53.3235 83.9314 53.7992 83.9314C54.4758 83.9314 55.0466 84.0794 55.5223 84.3649C55.9875 84.6503 56.294 85.1154 56.4526 85.7497L56.4738 85.8237H57.6366L57.6155 85.7074C57.3935 84.7771 56.9495 84.0794 56.3046 83.6143C55.6598 83.1597 54.8352 82.9271 53.8415 82.9271C53.1966 82.9271 52.6363 83.0329 52.1395 83.2337C51.6426 83.4451 51.2303 83.7306 50.9026 84.1006C50.5749 84.4706 50.3212 84.8934 50.152 85.3903C49.9829 85.8871 49.8983 86.4263 49.8983 86.9971C49.8983 87.5574 49.9935 88.0754 50.1732 88.5511C50.3529 89.0269 50.6172 89.4391 50.966 89.788C51.3043 90.1369 51.7166 90.4117 52.2029 90.6126C52.6892 90.8134 53.2389 90.9086 53.8415 90.9086C54.7823 90.9086 55.5646 90.6866 56.2095 90.2531C56.8438 89.8197 57.3089 89.1431 57.6049 88.2234L57.6472 88.0966ZM62.7241 84.9146C62.629 84.8829 62.5127 84.8511 62.3964 84.83C62.2801 84.8089 62.1638 84.7983 62.0475 84.7983C61.6458 84.7983 61.2653 84.8511 60.9058 84.9674C60.5464 85.0837 60.2293 85.2846 59.965 85.5806V84.9463H58.929V90.75H60.0707V87.9486C60.0707 87.6314 60.0918 87.3354 60.1447 87.0711C60.1975 86.8069 60.2821 86.5743 60.4195 86.384C60.5464 86.1937 60.7261 86.0457 60.9693 85.94C61.2124 85.8343 61.519 85.7814 61.8995 85.7814C62.1427 85.7814 62.3964 85.8237 62.6607 85.8977L62.7875 85.9294V84.9357L62.7241 84.9146ZM64.6032 88.1706H69.466L69.4978 88.1071C69.5083 88.0543 69.5189 88.0014 69.5189 87.9697C69.5189 87.5151 69.4555 87.0923 69.3286 86.7011C69.2018 86.31 69.0115 85.9823 68.7578 85.6969C68.504 85.4114 68.1869 85.1894 67.8063 85.0309C67.4152 84.8723 66.9712 84.7983 66.4532 84.7983C65.9775 84.7983 65.5546 84.8723 65.174 85.0203C64.7935 85.1683 64.4763 85.3797 64.212 85.644C63.9478 85.9083 63.7363 86.236 63.5989 86.606C63.4509 86.976 63.3769 87.3989 63.3769 87.8534C63.3769 88.3186 63.4509 88.7414 63.5989 89.1114C63.7469 89.4814 63.9583 89.8091 64.2438 90.0734C64.5186 90.3377 64.8569 90.5491 65.2586 90.6866C65.6498 90.8346 66.0938 90.9086 66.5906 90.9086C67.1932 90.9086 67.7323 90.8029 68.208 90.5809C68.6838 90.3589 69.0855 89.9994 69.4026 89.5026L69.4555 89.4074L68.3455 88.9634L68.3032 89.0374C68.1023 89.3863 67.8592 89.6189 67.5738 89.7351C67.2778 89.8514 66.9183 89.9149 66.506 89.9149C65.9035 89.9149 65.4489 89.7563 65.1423 89.4497C64.8252 89.1431 64.6455 88.7097 64.6032 88.1706ZM64.6349 87.2826C64.7089 86.8174 64.9098 86.4474 65.2163 86.1831C65.5229 85.9189 65.9352 85.7814 66.4532 85.7814C66.9923 85.7814 67.4152 85.9083 67.7006 86.162C67.986 86.4263 68.1763 86.7963 68.2715 87.2826H64.6349ZM73.3814 84.7983C72.9057 84.7983 72.4829 84.8723 72.1234 85.0309C71.7534 85.1894 71.4469 85.4114 71.2037 85.6863C70.9606 85.9611 70.7703 86.2783 70.6434 86.6483C70.5166 87.0183 70.4531 87.42 70.4531 87.8429C70.4531 88.2657 70.5166 88.6569 70.6434 89.0269C70.7703 89.3969 70.9606 89.7246 71.2037 89.9994C71.4469 90.2849 71.7534 90.5069 72.1234 90.6654C72.4934 90.824 72.9163 90.9086 73.392 90.9086C73.7726 90.9086 74.1214 90.8557 74.4386 90.7394C74.7557 90.6231 75.0411 90.4434 75.2949 90.2003V90.75H76.4366V83.0857H75.2949V85.3691C75.168 85.2529 75.0306 85.1471 74.8826 85.0731C74.724 84.9991 74.5654 84.9463 74.4069 84.904C74.2377 84.8617 74.0686 84.83 73.8994 84.8194C73.7197 84.8089 73.5506 84.7983 73.3814 84.7983ZM73.5083 89.936C73.1911 89.936 72.9163 89.8831 72.6837 89.7774C72.4406 89.6717 72.2503 89.5237 72.1023 89.3334C71.9437 89.1431 71.838 88.9211 71.764 88.6674C71.69 88.4137 71.6477 88.1389 71.6477 87.8429C71.6477 87.5469 71.6794 87.272 71.7534 87.0077C71.8274 86.754 71.9331 86.532 72.0917 86.3523C72.2503 86.1726 72.4406 86.0246 72.6837 85.9189C72.9163 85.8131 73.2017 85.7603 73.5294 85.7603C73.8571 85.7603 74.1426 85.8131 74.3857 85.9189C74.6183 86.0246 74.8086 86.1726 74.9671 86.3523C75.1151 86.532 75.2209 86.754 75.2949 87.0077C75.3689 87.272 75.4006 87.5469 75.4006 87.8429C75.4006 88.1389 75.3689 88.4137 75.2949 88.6674C75.2209 88.9211 75.1046 89.1431 74.9566 89.3334C74.798 89.5237 74.6077 89.6717 74.3646 89.7774C74.1214 89.8831 73.836 89.936 73.5083 89.936ZM78.0976 83.6777C78.0976 83.8469 78.1716 83.9843 78.309 84.1006C78.4465 84.2169 78.605 84.2803 78.7636 84.2803C78.9433 84.2803 79.1019 84.2169 79.2288 84.1006C79.3556 83.9843 79.419 83.8469 79.419 83.6777C79.419 83.498 79.3556 83.3606 79.2288 83.2443C79.1019 83.128 78.9433 83.0751 78.7636 83.0751C78.5839 83.0751 78.4253 83.128 78.2985 83.2337C78.161 83.35 78.0976 83.498 78.0976 83.6777ZM79.3239 84.9463H78.1928V90.75H79.3239V84.9463ZM82.8984 88.9951V85.8449H84.8012V84.9463H82.8984V83.3923H81.7672V84.9463H80.3718V85.8449H81.7672V88.5723C81.7672 88.6674 81.7672 88.7837 81.7778 88.9C81.7778 89.0269 81.7884 89.1537 81.7989 89.27C81.8095 89.3969 81.8412 89.5131 81.8729 89.6294C81.9046 89.7457 81.9364 89.862 81.9892 89.9571C82.0844 90.1369 82.2006 90.2743 82.3381 90.3906C82.4755 90.5069 82.6235 90.5914 82.7821 90.6549C82.9406 90.7289 83.1204 90.7711 83.3001 90.8029C83.4798 90.824 83.6701 90.8346 83.8498 90.8346C83.9978 90.8346 84.1458 90.8346 84.2832 90.824C84.4206 90.8134 84.5686 90.7817 84.7166 90.75L84.8012 90.7289V89.788L84.6744 89.8091C84.6426 89.8197 84.6004 89.8197 84.5475 89.8197C84.4946 89.8303 84.4312 89.8303 84.3678 89.8409C84.3044 89.8514 84.2409 89.8514 84.1881 89.8514C84.1246 89.862 84.0824 89.862 84.0506 89.862C83.7018 89.862 83.4164 89.7986 83.2155 89.6823C83.0041 89.566 82.8984 89.3334 82.8984 88.9951ZM96.1701 88.0966H94.9861L94.9544 88.16C94.9227 88.2446 94.8804 88.3291 94.8487 88.4137C94.817 88.4983 94.7747 88.5829 94.7324 88.6569C94.5104 89.0903 94.1827 89.4074 93.7704 89.6083C93.3581 89.8091 92.9036 89.9043 92.4173 89.9043C91.9416 89.9043 91.5293 89.8303 91.1804 89.6717C90.8316 89.5237 90.5356 89.3123 90.3136 89.048C90.081 88.7837 89.9118 88.4771 89.7956 88.1071C89.6793 87.7371 89.6264 87.346 89.6264 86.9126C89.6264 86.5003 89.6793 86.1091 89.785 85.7391C89.8907 85.3797 90.0493 85.0626 90.2713 84.7983C90.4933 84.534 90.7681 84.3226 91.1064 84.164C91.4447 84.0054 91.8464 83.9314 92.3221 83.9314C92.9987 83.9314 93.5696 84.0794 94.0453 84.3649C94.5104 84.6503 94.817 85.1154 94.9756 85.7497L94.9967 85.8237H96.1596L96.1384 85.7074C95.9164 84.7771 95.4724 84.0794 94.8276 83.6143C94.1827 83.1597 93.3581 82.9271 92.3644 82.9271C91.7196 82.9271 91.1593 83.0329 90.6624 83.2337C90.1656 83.4451 89.7533 83.7306 89.4256 84.1006C89.0978 84.4706 88.8441 84.8934 88.675 85.3903C88.5058 85.8871 88.4213 86.4263 88.4213 86.9971C88.4213 87.5574 88.5164 88.0754 88.6961 88.5511C88.8758 89.0269 89.1401 89.4391 89.489 89.788C89.8273 90.1369 90.2396 90.4117 90.7258 90.6126C91.2121 90.8134 91.7618 90.9086 92.3644 90.9086C93.3053 90.9086 94.0876 90.6866 94.7324 90.2531C95.3667 89.8197 95.8318 89.1431 96.1278 88.2234L96.1701 88.0966ZM97.2828 86.6589L98.3716 86.6483L98.3822 86.5637C98.4139 86.3946 98.4879 86.2571 98.5831 86.1409C98.6782 86.0351 98.7945 85.9506 98.9319 85.8977C99.0693 85.8449 99.2279 85.8026 99.4076 85.7814C99.5768 85.7603 99.7459 85.7497 99.9256 85.7497C100.074 85.7497 100.222 85.7603 100.37 85.792C100.507 85.8237 100.655 85.866 100.792 85.9189C101.004 85.9929 101.152 86.088 101.247 86.1937C101.332 86.2994 101.416 86.458 101.501 86.6589C101.532 86.7223 101.554 86.7751 101.564 86.828C101.575 86.8809 101.596 86.9443 101.606 87.0077V87.05L100.433 87.198C100.296 87.2086 100.137 87.2297 99.9785 87.2403C99.8199 87.2614 99.6402 87.2931 99.4605 87.3249C99.2279 87.3566 98.9742 87.4094 98.6993 87.4834C98.4245 87.5574 98.1708 87.6526 97.9382 87.7794C97.6951 87.9063 97.5048 88.0649 97.3462 88.2657C97.1876 88.4666 97.1031 88.7203 97.1031 89.0163C97.1031 89.3017 97.1665 89.5554 97.2933 89.7774C97.4202 90.01 97.5893 90.2109 97.8008 90.3694C98.0016 90.528 98.2448 90.6549 98.5091 90.75C98.7733 90.8451 99.0376 90.8874 99.3125 90.8874C99.4711 90.8874 99.6508 90.8769 99.8622 90.8451C100.074 90.8134 100.296 90.7606 100.518 90.6866C100.74 90.6231 100.951 90.5386 101.152 90.4434C101.353 90.3483 101.522 90.232 101.659 90.1051V90.75H102.801V87.2297C102.801 86.8174 102.727 86.4474 102.579 86.1409C102.42 85.8343 102.22 85.5806 101.955 85.3797C101.691 85.1789 101.374 85.0203 101.025 84.9146C100.676 84.8194 100.296 84.7666 99.8939 84.7666C99.6085 84.7666 99.3231 84.7983 99.0165 84.8511C98.7099 84.9146 98.4245 85.0097 98.1708 85.1471C97.9065 85.2846 97.6951 85.4749 97.5365 85.7074C97.3673 85.94 97.2828 86.2254 97.2828 86.5637V86.6589ZM101.67 87.9697V88.1494C101.67 88.2023 101.67 88.2551 101.659 88.2974C101.649 88.3397 101.628 88.382 101.617 88.4349C101.606 88.4877 101.585 88.53 101.564 88.5723C101.543 88.6146 101.522 88.6674 101.511 88.7203C101.437 88.9106 101.332 89.0797 101.184 89.2277C101.025 89.3757 100.856 89.5026 100.666 89.6083C100.465 89.714 100.264 89.788 100.042 89.8409C99.8199 89.8937 99.5979 89.9254 99.3971 89.9254C99.2596 89.9254 99.1328 89.8937 98.9953 89.8409C98.8579 89.788 98.7311 89.7246 98.6253 89.64C98.5091 89.5554 98.4245 89.4497 98.3505 89.3334C98.2765 89.2171 98.2448 89.1009 98.2448 88.974C98.2448 88.8366 98.3082 88.7203 98.4456 88.6251C98.5725 88.53 98.7416 88.456 98.9636 88.3926C99.1751 88.3291 99.3971 88.2763 99.6191 88.2446C99.8411 88.2129 100.01 88.1917 100.137 88.1811C100.274 88.1706 100.401 88.1494 100.539 88.1283C100.666 88.1071 100.792 88.086 100.93 88.0649C101.046 88.0543 101.173 88.0331 101.3 88.012C101.427 88.0014 101.554 87.9803 101.67 87.9697ZM108.105 84.9146C108.01 84.8829 107.894 84.8511 107.778 84.83C107.661 84.8089 107.545 84.7983 107.429 84.7983C107.027 84.7983 106.646 84.8511 106.287 84.9674C105.928 85.0837 105.61 85.2846 105.346 85.5806V84.9463H104.31V90.75H105.452V87.9486C105.452 87.6314 105.473 87.3354 105.526 87.0711C105.579 86.8069 105.663 86.5743 105.801 86.384C105.928 86.1937 106.107 86.0457 106.35 85.94C106.594 85.8343 106.9 85.7814 107.281 85.7814C107.524 85.7814 107.778 85.8237 108.042 85.8977L108.169 85.9294V84.9357L108.105 84.9146ZM111.686 84.7983C111.211 84.7983 110.788 84.8723 110.428 85.0309C110.058 85.1894 109.752 85.4114 109.509 85.6863C109.265 85.9611 109.075 86.2783 108.948 86.6483C108.821 87.0183 108.758 87.42 108.758 87.8429C108.758 88.2657 108.821 88.6569 108.948 89.0269C109.075 89.3969 109.265 89.7246 109.509 89.9994C109.752 90.2849 110.058 90.5069 110.428 90.6654C110.798 90.824 111.221 90.9086 111.697 90.9086C112.077 90.9086 112.426 90.8557 112.743 90.7394C113.061 90.6231 113.346 90.4434 113.6 90.2003V90.75H114.741V83.0857H113.6V85.3691C113.473 85.2529 113.335 85.1471 113.187 85.0731C113.029 84.9991 112.87 84.9463 112.712 84.904C112.543 84.8617 112.373 84.83 112.204 84.8194C112.025 84.8089 111.855 84.7983 111.686 84.7983ZM111.813 89.936C111.496 89.936 111.221 89.8831 110.989 89.7774C110.745 89.6717 110.555 89.5237 110.407 89.3334C110.249 89.1431 110.143 88.9211 110.069 88.6674C109.995 88.4137 109.953 88.1389 109.953 87.8429C109.953 87.5469 109.984 87.272 110.058 87.0077C110.132 86.754 110.238 86.532 110.397 86.3523C110.555 86.1726 110.745 86.0246 110.989 85.9189C111.221 85.8131 111.507 85.7603 111.834 85.7603C112.162 85.7603 112.447 85.8131 112.691 85.9189C112.923 86.0246 113.113 86.1726 113.272 86.3523C113.42 86.532 113.526 86.754 113.6 87.0077C113.674 87.272 113.705 87.5469 113.705 87.8429C113.705 88.1389 113.674 88.4137 113.6 88.6674C113.526 88.9211 113.409 89.1431 113.261 89.3334C113.103 89.5237 112.913 89.6717 112.669 89.7774C112.426 89.8831 112.141 89.936 111.813 89.936Z" fill="#19303B"/>
<path d="M57.6426 28.3574C57.6426 27.4233 58.3999 26.666 59.334 26.666L105.665 26.666C106.6 26.666 107.357 27.4233 107.357 28.3574V60.3913C107.357 61.3254 106.6 62.0827 105.665 62.0827L59.334 62.0827C58.3999 62.0827 57.6426 61.3254 57.6426 60.3913L57.6426 28.3574Z" stroke="#19303B" stroke-width="1.69143"/>
<rect x="57.6426" y="35" width="49.7143" height="6.25" fill="#19303B" stroke="#19303B" stroke-width="1.69143"/>
</g>
<defs>
<filter id="filter0_d" x="0" y="0" width="165" height="120" filterUnits="userSpaceOnUse" color-interpolation-filters="sRGB">
<feFlood flood-opacity="0" result="BackgroundImageFix"/>
<feColorMatrix in="SourceAlpha" type="matrix" values="0 0 0 0 0 0 0 0 0 0 0 0 0 0 0 0 0 0 127 0"/>
<feOffset/>
<feGaussianBlur stdDeviation="5"/>
<feColorMatrix type="matrix" values="0 0 0 0 0 0 0 0 0 0 0 0 0 0 0 0 0 0 0.15 0"/>
<feBlend mode="normal" in2="BackgroundImageFix" result="effect1_dropShadow"/>
<feBlend mode="normal" in="SourceGraphic" in2="effect1_dropShadow" result="shape"/>
</filter>
</defs>
</svg>
