<svg width="33" height="33" viewBox="0 0 33 33" fill="none" xmlns="http://www.w3.org/2000/svg">
<g clip-path="url(#clip0)">
<path d="M31.22 32H23.076V20.604H26.736H27.1755L27.2319 20.1681L27.8559 15.3401L27.9288 14.776H27.36H23.076V12.192C23.076 11.5132 23.1763 11.0824 23.4031 10.8129C23.6135 10.5628 24.0326 10.34 24.968 10.34H27.524H27.528H28.028V9.84V5.524V5.08702L27.595 5.0285C27.1253 4.96504 25.5866 4.832 23.8 4.832C21.8545 4.832 20.1645 5.4277 18.9595 6.61892C17.7529 7.81165 17.088 9.54661 17.088 11.716V14.776H13.416H12.916V15.276V20.108V20.608H13.416H17.088V32H1.78C1.34814 32 1 31.6519 1 31.22V1.78C1 1.34814 1.34814 1 1.78 1H31.22C31.6519 1 32 1.34814 32 1.78V31.22C32 31.6519 31.6519 32 31.22 32Z" fill="#19303B" stroke="#19303B"/>
</g>
<defs>
<clipPath id="clip0">
<rect width="32" height="32" fill="white" transform="translate(0.5 0.5)"/>
</clipPath>
</defs>
</svg>
