<svg width="194" height="89" viewBox="0 0 194 89" fill="none" xmlns="http://www.w3.org/2000/svg">
<g filter="url(#filter0_d)">
<rect x="10.5" y="10" width="165" height="60" rx="4.3396" fill="#3B5998"/>
</g>
<path d="M69.4327 33.9359V35.5503H64.312V39.1087H68.3044V40.7231H64.312V46H62.3331V33.9359H69.4327ZM70.607 41.1744C70.607 40.2139 70.8037 39.3633 71.1972 38.6227C71.6022 37.8821 72.1461 37.3092 72.8288 36.9042C73.5232 36.4876 74.287 36.2793 75.1202 36.2793C75.8724 36.2793 76.5262 36.4297 77.0817 36.7306C77.6487 37.0199 78.1 37.3845 78.4356 37.8242V36.4355H80.4318V46H78.4356V44.5766C78.1 45.0279 77.6429 45.404 77.0643 45.7049C76.4857 46.0058 75.8261 46.1562 75.0854 46.1562C74.2638 46.1562 73.5116 45.9479 72.8288 45.5313C72.1461 45.1032 71.6022 44.513 71.1972 43.7608C70.8037 42.997 70.607 42.1349 70.607 41.1744ZM78.4356 41.2091C78.4356 40.5495 78.2967 39.9766 78.019 39.4906C77.7528 39.0046 77.3999 38.6343 76.9601 38.3797C76.5204 38.1251 76.0459 37.9978 75.5368 37.9978C75.0276 37.9978 74.5531 38.1251 74.1134 38.3797C73.6736 38.6227 73.3149 38.9872 73.0372 39.4732C72.771 39.9477 72.6379 40.5148 72.6379 41.1744C72.6379 41.834 72.771 42.4126 73.0372 42.9102C73.3149 43.4078 73.6736 43.7897 74.1134 44.0559C74.5647 44.3105 75.0392 44.4377 75.5368 44.4377C76.0459 44.4377 76.5204 44.3105 76.9601 44.0559C77.3999 43.8013 77.7528 43.431 78.019 42.9449C78.2967 42.4473 78.4356 41.8687 78.4356 41.2091ZM82.3714 41.2091C82.3714 40.2254 82.5681 39.3633 82.9615 38.6227C83.3666 37.8705 83.922 37.2919 84.6279 36.8868C85.3338 36.4818 86.1439 36.2793 87.0581 36.2793C88.2153 36.2793 89.1701 36.557 89.9222 37.1125C90.686 37.6564 91.201 38.4375 91.4671 39.4559H89.3321C89.1585 38.9814 88.8807 38.6111 88.4989 38.345C88.117 38.0788 87.6367 37.9457 87.0581 37.9457C86.2481 37.9457 85.6 38.235 85.114 38.8136C84.6395 39.3807 84.4023 40.1792 84.4023 41.2091C84.4023 42.239 84.6395 43.0433 85.114 43.6219C85.6 44.2005 86.2481 44.4898 87.0581 44.4898C88.2038 44.4898 88.9618 43.9864 89.3321 42.9796H91.4671C91.1894 43.9517 90.6687 44.7271 89.9049 45.3057C89.1411 45.8727 88.1922 46.1562 87.0581 46.1562C86.1439 46.1562 85.3338 45.9537 84.6279 45.5487C83.922 45.1321 83.3666 44.5535 82.9615 43.8128C82.5681 43.0606 82.3714 42.1927 82.3714 41.2091ZM102.205 40.9834C102.205 41.3422 102.182 41.6662 102.136 41.9555H94.8279C94.8858 42.7193 95.1693 43.3326 95.6785 43.7955C96.1876 44.2584 96.8125 44.4898 97.5532 44.4898C98.6178 44.4898 99.37 44.0443 99.8097 43.1532H101.945C101.656 44.0327 101.129 44.756 100.365 45.323C99.613 45.8785 98.6757 46.1562 97.5532 46.1562C96.6389 46.1562 95.8173 45.9537 95.0883 45.5487C94.3708 45.1321 93.8037 44.5535 93.3871 43.8128C92.9821 43.0606 92.7796 42.1927 92.7796 41.2091C92.7796 40.2254 92.9763 39.3633 93.3698 38.6227C93.7748 37.8705 94.3361 37.2919 95.0535 36.8868C95.7826 36.4818 96.6158 36.2793 97.5532 36.2793C98.4558 36.2793 99.2601 36.476 99.966 36.8695C100.672 37.2629 101.222 37.8184 101.615 38.5359C102.008 39.2418 102.205 40.0576 102.205 40.9834ZM100.14 40.3585C100.128 39.6295 99.8676 39.0451 99.3584 38.6053C98.8492 38.1656 98.2186 37.9457 97.4664 37.9457C96.7836 37.9457 96.1992 38.1656 95.7132 38.6053C95.2271 39.0335 94.9378 39.6179 94.8452 40.3585H100.14ZM106.131 37.8589C106.467 37.396 106.924 37.0199 107.503 36.7306C108.093 36.4297 108.747 36.2793 109.464 36.2793C110.309 36.2793 111.073 36.4818 111.756 36.8868C112.438 37.2919 112.976 37.8705 113.37 38.6227C113.763 39.3633 113.96 40.2139 113.96 41.1744C113.96 42.1349 113.763 42.997 113.37 43.7608C112.976 44.513 112.433 45.1032 111.738 45.5313C111.055 45.9479 110.297 46.1562 109.464 46.1562C108.724 46.1562 108.064 46.0116 107.485 45.7223C106.918 45.433 106.467 45.0626 106.131 44.6113V46H104.153V33.1548H106.131V37.8589ZM111.947 41.1744C111.947 40.5148 111.808 39.9477 111.53 39.4732C111.264 38.9872 110.905 38.6227 110.454 38.3797C110.014 38.1251 109.539 37.9978 109.03 37.9978C108.533 37.9978 108.058 38.1251 107.607 38.3797C107.167 38.6343 106.808 39.0046 106.531 39.4906C106.265 39.9766 106.131 40.5495 106.131 41.2091C106.131 41.8687 106.265 42.4473 106.531 42.9449C106.808 43.431 107.167 43.8013 107.607 44.0559C108.058 44.3105 108.533 44.4377 109.03 44.4377C109.539 44.4377 110.014 44.3105 110.454 44.0559C110.905 43.7897 111.264 43.4078 111.53 42.9102C111.808 42.4126 111.947 41.834 111.947 41.1744ZM120.066 46.1562C119.163 46.1562 118.347 45.9537 117.618 45.5487C116.889 45.1321 116.316 44.5535 115.9 43.8128C115.483 43.0606 115.275 42.1927 115.275 41.2091C115.275 40.237 115.489 39.3749 115.917 38.6227C116.345 37.8705 116.93 37.2919 117.67 36.8868C118.411 36.4818 119.238 36.2793 120.152 36.2793C121.067 36.2793 121.894 36.4818 122.635 36.8868C123.375 37.2919 123.96 37.8705 124.388 38.6227C124.816 39.3749 125.03 40.237 125.03 41.2091C125.03 42.1812 124.81 43.0433 124.371 43.7955C123.931 44.5477 123.329 45.1321 122.565 45.5487C121.813 45.9537 120.98 46.1562 120.066 46.1562ZM120.066 44.4377C120.575 44.4377 121.049 44.3162 121.489 44.0732C121.94 43.8302 122.305 43.4657 122.583 42.9796C122.86 42.4936 122.999 41.9034 122.999 41.2091C122.999 40.5147 122.866 39.9304 122.6 39.4559C122.334 38.9699 121.981 38.6053 121.541 38.3623C121.101 38.1193 120.627 37.9978 120.118 37.9978C119.609 37.9978 119.134 38.1193 118.694 38.3623C118.266 38.6053 117.925 38.9699 117.67 39.4559C117.416 39.9304 117.288 40.5147 117.288 41.2091C117.288 42.239 117.549 43.0375 118.069 43.6045C118.602 44.16 119.267 44.4377 120.066 44.4377ZM131.135 46.1562C130.232 46.1562 129.417 45.9537 128.687 45.5487C127.958 45.1321 127.386 44.5535 126.969 43.8128C126.552 43.0606 126.344 42.1927 126.344 41.2091C126.344 40.237 126.558 39.3749 126.986 38.6227C127.415 37.8705 127.999 37.2919 128.74 36.8868C129.48 36.4818 130.308 36.2793 131.222 36.2793C132.136 36.2793 132.963 36.4818 133.704 36.8868C134.445 37.2919 135.029 37.8705 135.457 38.6227C135.885 39.3749 136.099 40.237 136.099 41.2091C136.099 42.1812 135.88 43.0433 135.44 43.7955C135 44.5477 134.398 45.1321 133.635 45.5487C132.882 45.9537 132.049 46.1562 131.135 46.1562ZM131.135 44.4377C131.644 44.4377 132.119 44.3162 132.558 44.0732C133.01 43.8302 133.374 43.4657 133.652 42.9796C133.93 42.4936 134.069 41.9034 134.069 41.2091C134.069 40.5147 133.935 39.9304 133.669 39.4559C133.403 38.9699 133.05 38.6053 132.61 38.3623C132.171 38.1193 131.696 37.9978 131.187 37.9978C130.678 37.9978 130.203 38.1193 129.764 38.3623C129.336 38.6053 128.994 38.9699 128.74 39.4559C128.485 39.9304 128.358 40.5147 128.358 41.2091C128.358 42.239 128.618 43.0375 129.139 43.6045C129.671 44.16 130.337 44.4377 131.135 44.4377ZM141.84 41.2264L146.249 46H143.576L140.035 41.8861V46H138.056V33.1548H140.035V40.6189L143.506 36.4355H146.249L141.84 41.2264Z" fill="white"/>
<mask id="mask0" mask-type="alpha" maskUnits="userSpaceOnUse" x="37" y="31" width="9" height="18">
<path d="M45.9819 31.2832V34.7549H44.2461C43.6472 34.7549 43.3782 35.4579 43.3782 36.0568V38.2266H45.9819V41.6982H43.3782V48.6416H39.9065V41.6982H37.3027V38.2266H39.9065V34.7549C39.9065 33.8341 40.2723 32.9511 40.9233 32.3C41.5744 31.649 42.4574 31.2832 43.3782 31.2832H45.9819Z" fill="#5F5F5F"/>
</mask>
<g mask="url(#mask0)">
<rect x="20.8125" y="20" width="41.25" height="40" fill="white"/>
</g>
<defs>
<filter id="filter0_d" x="0.952888" y="0.452888" width="192.773" height="87.7734" filterUnits="userSpaceOnUse" color-interpolation-filters="sRGB">
<feFlood flood-opacity="0" result="BackgroundImageFix"/>
<feColorMatrix in="SourceAlpha" type="matrix" values="0 0 0 0 0 0 0 0 0 0 0 0 0 0 0 0 0 0 127 0"/>
<feOffset dx="4.3396" dy="4.3396"/>
<feGaussianBlur stdDeviation="6.94335"/>
<feColorMatrix type="matrix" values="0 0 0 0 0 0 0 0 0 0 0 0 0 0 0 0 0 0 0.2 0"/>
<feBlend mode="normal" in2="BackgroundImageFix" result="effect1_dropShadow"/>
<feBlend mode="normal" in="SourceGraphic" in2="effect1_dropShadow" result="shape"/>
</filter>
</defs>
</svg>
