<svg width="20" height="16" viewBox="0 0 20 16" fill="none" xmlns="http://www.w3.org/2000/svg">
<path d="M19.8112 0.587805C19.4484 0.529268 19.0718 0.5 18.6811 0.5C18.5835 0.5 18.4998 0.5 18.4021 0.5C18.0812 0.514634 17.7743 0.543902 17.4674 0.602439C16.4629 0.778049 15.5282 1.17317 14.7051 1.7439C13.9657 2.18293 13.31 2.09512 13.1146 2.05122C10.0594 1.23171 6.85062 0.792683 3.55817 0.792683C2.42813 0.792683 1.326 0.85122 0.223861 0.939024C0.0703991 0.968293 -0.0412094 1.12927 0.0145949 1.27561C0.251763 2.03659 0.558686 2.75366 0.921414 3.44146C1.17253 3.90976 1.61897 4.23171 2.12121 4.30488C4.99513 4.7439 7.77139 5.51951 10.4081 6.5878C10.4221 6.60244 10.45 6.60244 10.4639 6.61707C10.4639 6.61707 10.4639 6.61707 10.4779 6.61707C10.4918 6.63171 10.5058 6.64634 10.5058 6.66097C10.5058 6.69024 10.4918 6.70488 10.4639 6.70488H10.45H10.436C10.4221 6.70488 10.4081 6.70488 10.3942 6.69024C10.3663 6.69024 10.3384 6.67561 10.3244 6.67561C8.12016 6.26585 5.86009 6.04634 3.54421 6.04634C3.47446 6.04634 3.41866 6.04634 3.3489 6.04634C3.12568 6.04634 3.02803 6.32439 3.18149 6.48537C4.6324 7.90488 6.40418 8.95854 8.38523 9.5C8.98513 9.66098 9.61293 9.77805 10.2547 9.85122C10.2128 10.4951 10.1291 11.6951 10.1152 12.661C9.98961 13.9195 9.06884 14.9293 7.82719 14.9293H7.81324C7.52027 14.9293 7.47842 15.3537 7.75744 15.4268C7.9388 15.4707 8.12016 15.5 8.30153 15.5C9.1665 15.5 9.878 15.0024 10.2965 14.2707L10.3105 14.2561L10.6174 13.6415C10.6174 13.6415 11.8172 11.2707 12.6682 9.86585C13.017 9.28049 13.3797 8.72439 13.7564 8.15366C13.882 7.97805 13.9936 7.80244 14.1191 7.6122C14.6772 6.80732 15.2631 6.03171 15.877 5.27073C16.3652 4.67073 16.8814 4.07073 17.3976 3.5C18.1789 2.63659 19.002 1.81707 19.867 1.04146C19.8809 1.02683 19.8949 1.02683 19.8949 1.0122C20.0762 0.895122 20.0065 0.631707 19.8112 0.587805ZM17.7045 2.15366C17.4395 2.15366 17.2163 1.91951 17.2163 1.64146C17.2163 1.36341 17.4395 1.12927 17.7045 1.12927C17.9696 1.12927 18.1928 1.36341 18.1928 1.64146C18.1789 1.91951 17.9696 2.15366 17.7045 2.15366Z" fill="#FAB900"/>
</svg>
