<svg width="33" height="33" viewBox="0 0 33 33" fill="none" xmlns="http://www.w3.org/2000/svg">
<g clip-path="url(#clip0)">
<path d="M4.92857 27.9286V28.4286H5.42857H10.1714H10.1786H10.6786V27.9286V12.6571V12.1571H10.1786H5.42857H4.92857V12.6571V27.9286ZM27.95 28.4286H28.45V27.9286V19.5571C28.45 17.4887 28.2311 15.5427 27.3265 14.1083C26.3887 12.6212 24.7807 11.7786 22.2571 11.7786C20.4856 11.7786 19.1081 12.4682 18.2 13.3524V12.6571V12.1571H17.7H13.15H12.65V12.6571V27.9286V28.4286H13.15H17.8929H18.3929V27.9286V20.3714C18.3929 19.3842 18.4914 18.5165 18.8288 17.905C18.9911 17.611 19.2065 17.3807 19.497 17.22C19.7904 17.0576 20.19 16.95 20.7429 16.95C21.2699 16.95 21.6216 17.0725 21.8658 17.2434C22.1112 17.4151 22.2908 17.6655 22.4207 17.9944C22.6918 18.6808 22.7071 19.5925 22.7071 20.5V27.9286V28.4286H23.2071H27.95ZM2.77857 1H30.2143C31.1912 1 32 1.8078 32 2.80714V30.1929C32 31.1922 31.1912 32 30.2143 32H2.77857C1.80363 32 1 31.1942 1 30.1929V2.80714C1 1.80575 1.80363 1 2.77857 1ZM4.55 7.82143C4.55 9.61101 6.00158 11.0714 7.8 11.0714C9.59757 11.0714 11.05 9.619 11.05 7.82143C11.05 6.031 9.59043 4.57143 7.8 4.57143C6.00158 4.57143 4.55 6.03185 4.55 7.82143Z" fill="#19303B" stroke="#19303B"/>
</g>
<defs>
<clipPath id="clip0">
<rect width="32" height="32" fill="white" transform="translate(0.5 0.5)"/>
</clipPath>
</defs>
</svg>
