<svg width="32" height="32" viewBox="0 0 32 32" fill="none" xmlns="http://www.w3.org/2000/svg">
<path d="M18.2533 21.7865C18.1854 21.7835 18.1211 21.7549 18.0733 21.7065L13.0733 16.7065C13.0262 16.6564 13 16.5903 13 16.5215C13 16.4528 13.0262 16.3866 13.0733 16.3365L18.3333 11.0765C18.3567 11.0523 18.3846 11.0331 18.4156 11.0199C18.4465 11.0068 18.4797 11 18.5133 11C18.5469 11 18.5802 11.0068 18.6111 11.0199C18.6421 11.0331 18.67 11.0523 18.6933 11.0765C18.7404 11.1266 18.7667 11.1928 18.7667 11.2615C18.7667 11.3303 18.7404 11.3964 18.6933 11.4465L13.6133 16.5265L18.4433 21.3465C18.4675 21.3698 18.4868 21.3978 18.4999 21.4287C18.5131 21.4596 18.5198 21.4929 18.5198 21.5265C18.5198 21.5601 18.5131 21.5934 18.4999 21.6243C18.4868 21.6552 18.4675 21.6832 18.4433 21.7065C18.3931 21.7573 18.3248 21.786 18.2533 21.7865V21.7865Z" stroke="#19303B" stroke-width="0.5"/>
</svg>
