<svg width="8" height="13" viewBox="0 0 8 13" fill="none" xmlns="http://www.w3.org/2000/svg">
<path d="M6.25334 11.7865C6.18541 11.7835 6.12113 11.7549 6.07334 11.7065L1.07334 6.70651C1.02623 6.65643 1 6.59026 1 6.52151C1 6.45275 1.02623 6.38659 1.07334 6.33651L6.33334 1.07651C6.35666 1.05231 6.38462 1.03307 6.41555 1.01992C6.44648 1.00678 6.47973 1 6.51334 1C6.54694 1 6.5802 1.00678 6.61113 1.01992C6.64206 1.03307 6.67002 1.05231 6.69334 1.07651C6.74045 1.12659 6.76668 1.19275 6.76668 1.26151C6.76668 1.33026 6.74045 1.39643 6.69334 1.44651L1.61334 6.52651L6.44334 11.3465C6.46753 11.3698 6.48678 11.3978 6.49992 11.4287C6.51307 11.4596 6.51984 11.4929 6.51984 11.5265C6.51984 11.5601 6.51307 11.5934 6.49992 11.6243C6.48678 11.6552 6.46753 11.6832 6.44334 11.7065C6.39308 11.7573 6.32476 11.786 6.25334 11.7865V11.7865Z" stroke="#19303B" stroke-width="0.5"/>
</svg>
