<svg width="22" height="22" viewBox="0 0 22 22" fill="none" xmlns="http://www.w3.org/2000/svg">
<path d="M20.9994 16.3259V19.3367C21.0005 19.6162 20.9432 19.8929 20.831 20.149C20.7188 20.4051 20.5542 20.6349 20.3478 20.8239C20.1415 21.0129 19.8978 21.1567 19.6325 21.2463C19.3672 21.3358 19.0861 21.3691 18.8072 21.3439C15.7128 21.0083 12.7404 19.9531 10.1289 18.2628C7.69921 16.722 5.63926 14.6661 4.09534 12.2412C2.39586 9.62304 1.33824 6.64213 1.00816 3.54C0.983033 3.26247 1.01608 2.98276 1.1052 2.71868C1.19432 2.45459 1.33757 2.21192 1.52581 2.00612C1.71405 1.80031 1.94317 1.63588 2.19858 1.52328C2.45398 1.41069 2.73008 1.35241 3.0093 1.35215H6.02608C6.5141 1.34735 6.98722 1.51983 7.35725 1.83742C7.72727 2.15502 7.96896 2.59606 8.03727 3.07834C8.1646 4.04187 8.40074 4.98792 8.74118 5.89847C8.87648 6.25768 8.90576 6.64807 8.82556 7.02338C8.74536 7.3987 8.55903 7.7432 8.28867 8.01607L7.01156 9.29064C8.44308 11.8032 10.5276 13.8836 13.0451 15.3123L14.3222 14.0377C14.5956 13.7678 14.9408 13.5819 15.3169 13.5018C15.6929 13.4218 16.0841 13.451 16.444 13.5861C17.3564 13.9258 18.3043 14.1615 19.2698 14.2886C19.7582 14.3574 20.2044 14.6029 20.5233 14.9786C20.8422 15.3542 21.0116 15.8337 20.9994 16.3259Z" stroke="white" stroke-linecap="round" stroke-linejoin="round"/>
</svg>
