<svg width="46" height="33" viewBox="0 0 46 33" fill="none" xmlns="http://www.w3.org/2000/svg">
<path d="M5.69717 31.1863L5.16037 30.6625H5.16037L5.69717 31.1863ZM3.70637 31.1863L3.16956 31.7101H3.16956L3.70637 31.1863ZM11.7802 24.5893H12.5302V24.3662L12.4083 24.1794L11.7802 24.5893ZM7.13498 17.4708L6.50266 17.8742L6.50688 17.8807L7.13498 17.4708ZM7.86494 15.2718L7.62617 14.5608L7.62248 14.5621L7.86494 15.2718ZM11.7802 13.957L12.019 14.6679L12.5302 14.4963V13.957H11.7802ZM11.7802 7.17857V6.42857C11.366 6.42857 11.0302 6.76436 11.0302 7.17857H11.7802ZM14.6116 7.17857V7.92857C15.0258 7.92857 15.3616 7.59279 15.3616 7.17857H14.6116ZM14.6116 4.27679V3.52679C14.1973 3.52679 13.8616 3.86257 13.8616 4.27679H14.6116ZM20.2743 4.27679V5.02679C20.6885 5.02679 21.0243 4.691 21.0243 4.27679H20.2743ZM20.2743 1.375V0.625C19.8601 0.625 19.5243 0.960786 19.5243 1.375L20.2743 1.375ZM25.937 1.375H26.687C26.687 0.960786 26.3512 0.625 25.937 0.625V1.375ZM25.937 4.27679H25.187C25.187 4.691 25.5228 5.02679 25.937 5.02679V4.27679ZM31.5998 4.27679H32.3498C32.3498 3.86257 32.014 3.52679 31.5998 3.52679V4.27679ZM31.5998 7.17857H30.8498C30.8498 7.59279 31.1855 7.92857 31.5998 7.92857V7.17857ZM34.4311 7.17857H35.1811C35.1811 6.76436 34.8453 6.42857 34.4311 6.42857V7.17857ZM34.4311 13.957H33.6811V14.4963L34.1924 14.6679L34.4311 13.957ZM38.3464 15.2718L38.5888 14.5621L38.5852 14.5609L38.3464 15.2718ZM39.0763 17.4708L39.7045 17.8807L39.7086 17.8742L39.0763 17.4708ZM34.4311 24.5893L33.803 24.1794L33.6811 24.3662V24.5893H34.4311ZM43.3455 31.1863L42.8087 31.7101L43.3455 32.2602L43.8823 31.7101L43.3455 31.1863ZM41.5096 29.3047L42.0464 28.7809L41.5096 28.2308L40.9727 28.7809L41.5096 29.3047ZM39.6736 31.1863L39.1368 30.6625L39.1297 30.6698L39.1228 30.6772L39.6736 31.1863ZM37.6828 31.1863L38.2335 30.6772L38.2267 30.6698L38.2196 30.6625L37.6828 31.1863ZM35.8468 29.3047L36.3836 28.7809L35.8468 28.2308L35.31 28.7809L35.8468 29.3047ZM34.0108 31.1863L34.5477 31.7101L34.0108 31.1863ZM32.02 31.1863L32.5568 30.6625L32.02 31.1863ZM30.1841 29.3047L30.7209 28.7809L30.1841 28.2308L29.6473 28.7809L30.1841 29.3047ZM28.3481 31.1863L27.8113 30.6625L28.3481 31.1863ZM26.3573 31.1863L26.8941 30.6625L26.3573 31.1863ZM24.5213 29.3047L25.0581 28.7809L24.5213 28.2308L23.9845 28.7809L24.5213 29.3047ZM22.6854 31.1863L22.1486 30.6625L22.6854 31.1863ZM20.6946 31.1863L21.2314 30.6625L20.6946 31.1863ZM18.8586 29.3047L19.3954 28.7809L18.8586 28.2308L18.3218 28.7809L18.8586 29.3047ZM17.0226 31.1863L16.4858 30.6625L17.0226 31.1863ZM15.0318 31.1863L14.495 31.7101L15.0318 31.1863ZM13.1959 29.3047L13.7327 28.7809L13.1959 28.2308L12.6591 28.7809L13.1959 29.3047ZM11.3599 31.1863L10.8231 30.6625H10.8231L11.3599 31.1863ZM9.3691 31.1863L9.90591 30.6625L9.3691 31.1863ZM7.53314 29.3047L8.06994 28.7809L7.53314 28.2308L6.99634 28.7809L7.53314 29.3047ZM14.6116 10.0804V9.33036C14.1973 9.33036 13.8616 9.66614 13.8616 10.0804H14.6116ZM14.6116 12.9821H13.8616V14.0309L14.854 13.6919L14.6116 12.9821ZM23.1057 10.0804L23.3481 9.37063C23.1909 9.31693 23.0204 9.31693 22.8632 9.37063L23.1057 10.0804ZM31.5998 12.9821L31.3573 13.6919L32.3498 14.0309V12.9821H31.5998ZM31.5998 10.0804H32.3498C32.3498 9.66614 32.014 9.33036 31.5998 9.33036V10.0804ZM28.7684 10.0804H28.0184C28.0184 10.4946 28.3542 10.8304 28.7684 10.8304V10.0804ZM28.7684 7.17857H29.5184C29.5184 6.76436 29.1826 6.42857 28.7684 6.42857V7.17857ZM17.4429 7.17857V6.42857C17.0287 6.42857 16.6929 6.76436 16.6929 7.17857H17.4429ZM17.4429 10.0804V10.8304C17.8571 10.8304 18.1929 10.4946 18.1929 10.0804H17.4429ZM5.16037 30.6625C5.014 30.8125 4.87283 30.8671 4.70177 30.8671V32.3671C5.29754 32.3671 5.81997 32.1344 6.23398 31.7101L5.16037 30.6625ZM4.70177 30.8671C4.53071 30.8671 4.38954 30.8125 4.24317 30.6625L3.16956 31.7101C3.58357 32.1344 4.106 32.3671 4.70177 32.3671V30.8671ZM4.24317 30.6625L1.4118 27.7607L0.338197 28.8083L3.16956 31.7101L4.24317 30.6625ZM12.5302 31.2317V24.5893H11.0302V31.2317H12.5302ZM12.4083 24.1794L7.76307 17.061L6.50688 17.8807L11.1521 24.9992L12.4083 24.1794ZM7.76726 17.0675C7.64168 16.8706 7.61195 16.6765 7.69447 16.4185L6.2658 15.9615C6.05339 16.6254 6.12689 17.2852 6.50269 17.8742L7.76726 17.0675ZM7.69447 16.4185C7.77263 16.1742 7.8987 16.0529 8.1074 15.9816L7.62248 14.5621C6.94637 14.7931 6.48258 15.2838 6.2658 15.9615L7.69447 16.4185ZM8.10371 15.9828L12.019 14.6679L11.5414 13.246L7.62617 14.5609L8.10371 15.9828ZM12.5302 13.957V7.17857H11.0302V13.957H12.5302ZM11.7802 7.92857H14.6116V6.42857H11.7802V7.92857ZM15.3616 7.17857V4.27679H13.8616V7.17857H15.3616ZM14.6116 5.02679H20.2743V3.52679H14.6116V5.02679ZM21.0243 4.27679V1.375H19.5243V4.27679H21.0243ZM20.2743 2.125H25.937V0.625H20.2743V2.125ZM25.187 1.375V4.27679H26.687V1.375H25.187ZM25.937 5.02679H31.5998V3.52679H25.937V5.02679ZM30.8498 4.27679V7.17857H32.3498V4.27679H30.8498ZM31.5998 7.92857H34.4311V6.42857H31.5998V7.92857ZM33.6811 7.17857V13.957H35.1811V7.17857H33.6811ZM34.1924 14.6679L38.1076 15.9828L38.5852 14.5609L34.6699 13.246L34.1924 14.6679ZM38.1039 15.9816C38.3126 16.0529 38.4387 16.1742 38.5168 16.4185L39.9455 15.9615C39.7287 15.2838 39.2649 14.7931 38.5888 14.5621L38.1039 15.9816ZM38.5168 16.4185C38.5994 16.6765 38.5696 16.8706 38.4441 17.0675L39.7086 17.8742C40.0844 17.2852 40.1579 16.6254 39.9455 15.9615L38.5168 16.4185ZM38.4482 17.061L33.803 24.1794L35.0592 24.9992L39.7044 17.8807L38.4482 17.061ZM33.6811 24.5893V31.2317H35.1811V24.5893H33.6811ZM44.7995 28.6222L42.8087 30.6625L43.8823 31.7101L45.8731 29.6698L44.7995 28.6222ZM43.8823 30.6625L42.0464 28.7809L40.9727 29.8285L42.8087 31.7101L43.8823 30.6625ZM40.9727 28.7809L39.1368 30.6625L40.2104 31.7101L42.0464 29.8285L40.9727 28.7809ZM39.1228 30.6772C39.0023 30.8077 38.8715 30.8671 38.6782 30.8671V32.3671C39.2812 32.3671 39.814 32.1393 40.2243 31.6954L39.1228 30.6772ZM38.6782 30.8671C38.4848 30.8671 38.3541 30.8077 38.2335 30.6772L37.132 31.6954C37.5423 32.1393 38.0752 32.3671 38.6782 32.3671V30.8671ZM38.2196 30.6625L36.3836 28.7809L35.31 29.8285L37.146 31.7101L38.2196 30.6625ZM35.31 28.7809L33.474 30.6625L34.5477 31.7101L36.3836 29.8285L35.31 28.7809ZM33.474 30.6625C33.3277 30.8125 33.1865 30.8671 33.0154 30.8671V32.3671C33.6112 32.3671 34.1336 32.1344 34.5477 31.7101L33.474 30.6625ZM33.0154 30.8671C32.8444 30.8671 32.7032 30.8125 32.5568 30.6625L31.4832 31.7101C31.8972 32.1344 32.4197 32.3671 33.0154 32.3671V30.8671ZM32.5568 30.6625L30.7209 28.7809L29.6473 29.8285L31.4832 31.7101L32.5568 30.6625ZM29.6473 28.7809L27.8113 30.6625L28.8849 31.7101L30.7209 29.8285L29.6473 28.7809ZM27.8113 30.6625C27.6649 30.8125 27.5238 30.8671 27.3527 30.8671V32.3671C27.9485 32.3671 28.4709 32.1344 28.8849 31.7101L27.8113 30.6625ZM27.3527 30.8671C27.1817 30.8671 27.0405 30.8125 26.8941 30.6625L25.8205 31.7101C26.2345 32.1344 26.7569 32.3671 27.3527 32.3671V30.8671ZM26.8941 30.6625L25.0581 28.7809L23.9845 29.8285L25.8205 31.7101L26.8941 30.6625ZM23.9845 28.7809L22.1486 30.6625L23.2222 31.7101L25.0581 29.8285L23.9845 28.7809ZM22.1486 30.6625C22.0022 30.8125 21.861 30.8671 21.69 30.8671V32.3671C22.2857 32.3671 22.8082 32.1344 23.2222 31.7101L22.1486 30.6625ZM21.69 30.8671C21.5189 30.8671 21.3777 30.8125 21.2314 30.6625L20.1578 31.7101C20.5718 32.1344 21.0942 32.3671 21.69 32.3671V30.8671ZM21.2314 30.6625L19.3954 28.7809L18.3218 29.8285L20.1578 31.7101L21.2314 30.6625ZM18.3218 28.7809L16.4858 30.6625L17.5594 31.7101L19.3954 29.8285L18.3218 28.7809ZM16.4858 30.6625C16.3395 30.8125 16.1983 30.8671 16.0272 30.8671V32.3671C16.623 32.3671 17.1454 32.1344 17.5594 31.7101L16.4858 30.6625ZM16.0272 30.8671C15.8562 30.8671 15.715 30.8125 15.5686 30.6625L14.495 31.7101C14.909 32.1344 15.4315 32.3671 16.0272 32.3671V30.8671ZM15.5686 30.6625L13.7327 28.7809L12.6591 29.8285L14.495 31.7101L15.5686 30.6625ZM12.6591 28.7809L10.8231 30.6625L11.8967 31.7101L13.7327 29.8285L12.6591 28.7809ZM10.8231 30.6625C10.6767 30.8125 10.5356 30.8671 10.3645 30.8671V32.3671C10.9603 32.3671 11.4827 32.1344 11.8967 31.7101L10.8231 30.6625ZM10.3645 30.8671C10.1935 30.8671 10.0523 30.8125 9.90591 30.6625L8.8323 31.7101C9.24631 32.1344 9.76873 32.3671 10.3645 32.3671V30.8671ZM9.90591 30.6625L8.06994 28.7809L6.99634 29.8285L8.8323 31.7101L9.90591 30.6625ZM6.99634 28.7809L5.16037 30.6625L6.23398 31.7101L8.06994 29.8285L6.99634 28.7809ZM13.8616 10.0804V12.9821H15.3616V10.0804H13.8616ZM14.854 13.6919L23.3481 10.7901L22.8632 9.37063L14.3691 12.2724L14.854 13.6919ZM22.8632 10.7901L31.3573 13.6919L31.8422 12.2724L23.3481 9.37063L22.8632 10.7901ZM32.3498 12.9821V10.0804H30.8498V12.9821H32.3498ZM31.5998 9.33036H28.7684V10.8304H31.5998V9.33036ZM29.5184 10.0804V7.17857H28.0184V10.0804H29.5184ZM28.7684 6.42857H17.4429V7.92857H28.7684V6.42857ZM16.6929 7.17857V10.0804H18.1929V7.17857H16.6929ZM17.4429 9.33036H14.6116V10.8304H17.4429V9.33036Z" fill="#19303B"/>
</svg>
