<svg width="33" height="34" viewBox="0 0 33 34" fill="none" xmlns="http://www.w3.org/2000/svg">
<path d="M16.4058 26.2183C14.6134 26.2183 12.8612 25.6868 11.3709 24.691C9.88059 23.6952 8.71903 22.2798 8.03311 20.6238C7.34719 18.9679 7.16772 17.1457 7.5174 15.3878C7.86708 13.6298 8.7302 12.015 9.99761 10.7476C11.265 9.4802 12.8798 8.61707 14.6378 8.2674C16.3957 7.91772 18.2179 8.0972 19.8738 8.78312C21.5298 9.46904 22.9452 10.6306 23.941 12.1209C24.9368 13.6112 25.4683 15.3634 25.4683 17.1558C25.4683 18.3459 25.2339 19.5243 24.7784 20.6238C24.323 21.7234 23.6555 22.7224 22.8139 23.5639C21.9724 24.4055 20.9734 25.073 19.8738 25.5284C18.7743 25.9839 17.5959 26.2183 16.4058 26.2183V26.2183ZM16.4058 8.89014C14.7703 8.88705 13.1707 9.36919 11.8094 10.2755C10.4481 11.1819 9.3862 12.4717 8.75819 13.9818C8.13019 15.4919 7.96428 17.1543 8.28144 18.7587C8.5986 20.3631 9.38459 21.8374 10.5399 22.9949C11.6953 24.1524 13.168 24.9412 14.7718 25.2614C16.3756 25.5816 18.0384 25.4188 19.5496 24.7937C21.0609 24.1685 22.3527 23.1091 23.2617 21.7495C24.1706 20.3899 24.6558 18.7912 24.6558 17.1558C24.6558 14.9663 23.7871 12.8663 22.2403 11.3166C20.6936 9.76695 18.5952 8.89428 16.4058 8.89014V8.89014Z" stroke="#19303B"/>
<path d="M27.2812 28.4373C27.1696 28.4366 27.0628 28.3917 26.9843 28.3124L24.6093 25.9374C24.5715 25.9009 24.5414 25.8572 24.5209 25.8089C24.5003 25.7606 24.4897 25.7086 24.4897 25.6561C24.4897 25.6036 24.5003 25.5516 24.5209 25.5033C24.5414 25.455 24.5715 25.4113 24.6093 25.3749C24.6875 25.3013 24.7909 25.2603 24.8983 25.2603C25.0058 25.2603 25.1092 25.3013 25.1874 25.3749L27.5624 27.7499C27.6002 27.7863 27.6303 27.83 27.6508 27.8783C27.6714 27.9266 27.682 27.9786 27.682 28.0311C27.682 28.0836 27.6714 28.1356 27.6508 28.1839C27.6303 28.2322 27.6002 28.2759 27.5624 28.3124C27.4878 28.388 27.3873 28.4326 27.2812 28.4373Z" stroke="#19303B"/>
<path d="M7.90659 9.0468C7.80227 9.0478 7.70157 9.00863 7.62534 8.93741L5.25034 6.56241C5.17673 6.48416 5.13574 6.38078 5.13574 6.27335C5.13574 6.16592 5.17673 6.06254 5.25034 5.98429C5.28678 5.94648 5.33046 5.91642 5.37879 5.89588C5.42711 5.87534 5.47908 5.86475 5.53159 5.86475C5.5841 5.86475 5.63606 5.87534 5.68438 5.89588C5.73271 5.91642 5.7764 5.94648 5.81284 5.98429L8.18783 8.3593C8.26144 8.43754 8.30243 8.54092 8.30243 8.64835C8.30243 8.75578 8.26144 8.85916 8.18783 8.93741C8.15109 8.97413 8.10711 9.00282 8.0587 9.02165C8.01028 9.04047 7.95849 9.04904 7.90659 9.0468Z" stroke="#19303B"/>
<path d="M31.7817 17.5625H28.4224C28.3146 17.5625 28.2113 17.5197 28.1351 17.4435C28.0589 17.3673 28.0161 17.264 28.0161 17.1562C28.0161 17.0485 28.0589 16.9452 28.1351 16.869C28.2113 16.7928 28.3146 16.75 28.4224 16.75H31.7817C31.8895 16.75 31.9928 16.7928 32.069 16.869C32.1452 16.9452 32.188 17.0485 32.188 17.1562C32.188 17.264 32.1452 17.3673 32.069 17.4435C31.9928 17.5197 31.8895 17.5625 31.7817 17.5625V17.5625Z" stroke="#19303B"/>
<path d="M4.39062 17.5625H1.03125C0.923503 17.5625 0.820169 17.5197 0.743983 17.4435C0.667796 17.3673 0.625 17.264 0.625 17.1562C0.625 17.0485 0.667796 16.9452 0.743983 16.869C0.820169 16.7928 0.923503 16.75 1.03125 16.75H4.39062C4.49837 16.75 4.6017 16.7928 4.67788 16.869C4.75407 16.9452 4.79687 17.0485 4.79687 17.1562C4.79687 17.264 4.75407 17.3673 4.67788 17.4435C4.6017 17.5197 4.49837 17.5625 4.39062 17.5625V17.5625Z" stroke="#19303B"/>
<path d="M24.9061 9.0465C24.8261 9.04724 24.7477 9.02436 24.6807 8.98075C24.6137 8.93713 24.5611 8.87471 24.5294 8.80131C24.4977 8.72791 24.4884 8.6468 24.5026 8.56812C24.5168 8.48943 24.5539 8.41669 24.6092 8.359L26.9842 5.98399C27.0609 5.90733 27.1649 5.86426 27.2733 5.86426C27.3817 5.86426 27.4857 5.90733 27.5623 5.98399C27.639 6.06066 27.6821 6.16463 27.6821 6.27305C27.6821 6.38147 27.639 6.48545 27.5623 6.56211L25.1873 8.93712C25.1111 9.00833 25.0104 9.04751 24.9061 9.0465V9.0465Z" stroke="#19303B"/>
<path d="M5.57755 28.4368C5.47141 28.432 5.37096 28.3874 5.2963 28.3118C5.2585 28.2754 5.22842 28.2317 5.20788 28.1834C5.18734 28.135 5.17676 28.0831 5.17676 28.0305C5.17676 27.978 5.18734 27.9261 5.20788 27.8777C5.22842 27.8294 5.2585 27.7857 5.2963 27.7493L7.6713 25.3743C7.74589 25.2997 7.84706 25.2578 7.95255 25.2578C8.05804 25.2578 8.15921 25.2997 8.2338 25.3743C8.30839 25.4489 8.3503 25.5501 8.3503 25.6555C8.3503 25.761 8.30839 25.8622 8.2338 25.9368L5.8588 28.3118C5.82283 28.3506 5.77935 28.3817 5.731 28.4032C5.68266 28.4247 5.63045 28.4361 5.57755 28.4368Z" stroke="#19303B"/>
<path d="M16.4063 5.54687C16.2985 5.54687 16.1952 5.50406 16.119 5.42788C16.0428 5.35169 16 5.24837 16 5.14063V1.78124C16 1.6735 16.0428 1.57018 16.119 1.49399C16.1952 1.41781 16.2985 1.375 16.4063 1.375C16.514 1.375 16.6173 1.41781 16.6935 1.49399C16.7697 1.57018 16.8125 1.6735 16.8125 1.78124V5.14063C16.8125 5.24837 16.7697 5.35169 16.6935 5.42788C16.6173 5.50406 16.514 5.54687 16.4063 5.54687V5.54687Z" stroke="#19303B"/>
<path d="M16.4063 32.937C16.3012 32.9371 16.2001 32.8964 16.1244 32.8236C16.0486 32.7508 16.004 32.6514 16 32.5464V29.1714C16 29.0636 16.0428 28.9603 16.119 28.8841C16.1952 28.8079 16.2985 28.7651 16.4063 28.7651C16.514 28.7651 16.6173 28.8079 16.6935 28.8841C16.7697 28.9603 16.8125 29.0636 16.8125 29.1714V32.5464C16.8085 32.6514 16.7639 32.7508 16.6881 32.8236C16.6124 32.8964 16.5113 32.9371 16.4063 32.937Z" stroke="#19303B"/>
</svg>
