<svg width="31" height="25" viewBox="0 0 31 25" fill="none" xmlns="http://www.w3.org/2000/svg">
<path d="M27.4992 4.94689C26.543 5.35939 25.5023 5.65627 24.4305 5.77189C25.5433 5.11075 26.3767 4.06626 26.7742 2.83439C25.7299 3.4556 24.5859 3.89121 23.393 4.12189C22.8944 3.58885 22.2913 3.1642 21.6214 2.87441C20.9515 2.58462 20.2291 2.4359 19.4992 2.43751C16.5461 2.43751 14.1711 4.83126 14.1711 7.76877C14.1711 8.18127 14.2211 8.59377 14.3023 8.99064C9.88047 8.75939 5.93672 6.64689 3.31484 3.41251C2.83711 4.2285 2.58676 5.1576 2.58984 6.10314C2.58984 7.95314 3.53047 9.58439 4.96484 10.5438C4.11954 10.5105 3.29404 10.2781 2.55547 9.86564V9.93127C2.55547 12.5219 4.38672 14.6688 6.82734 15.1625C6.36909 15.2816 5.89768 15.3425 5.42422 15.3438C5.07734 15.3438 4.74922 15.3094 4.41797 15.2625C5.09297 17.375 7.05859 18.9094 9.39922 18.9594C7.56797 20.3938 5.27422 21.2375 2.78359 21.2375C2.33672 21.2375 1.92422 21.2219 1.49609 21.1719C3.85859 22.6875 6.66172 23.5625 9.68047 23.5625C19.4805 23.5625 24.843 15.4438 24.843 8.39689C24.843 8.16564 24.843 7.93439 24.8273 7.70314C25.8648 6.94377 26.7742 6.00314 27.4992 4.94689Z" stroke="#19303B" stroke-width="2"/>
</svg>
