<svg width="179" height="134" viewBox="0 0 179 134" fill="none" xmlns="http://www.w3.org/2000/svg">
<g filter="url(#filter0_d)">
<path d="M17 18C17 17.4477 17.4477 17 18 17H161C161.552 17 162 17.4477 162 18V116C162 116.552 161.552 117 161 117H18C17.4477 117 17 116.552 17 116V18Z" fill="#FAB900"/>
<path d="M62.1233 90.0857H60.9181L59.0998 95.8471L57.2815 90.0857H56.161L54.3533 95.8471L52.535 90.0857H51.351L53.8035 97.75H54.8924L56.7213 92.0309L58.5713 97.75H59.6495L62.1233 90.0857ZM63.1256 90.6777C63.1256 90.8469 63.1996 90.9843 63.337 91.1006C63.4744 91.2169 63.633 91.2803 63.7916 91.2803C63.9713 91.2803 64.1298 91.2169 64.2567 91.1006C64.3836 90.9843 64.447 90.8469 64.447 90.6777C64.447 90.498 64.3836 90.3606 64.2567 90.2443C64.1298 90.128 63.9713 90.0751 63.7916 90.0751C63.6118 90.0751 63.4533 90.128 63.3264 90.2337C63.189 90.35 63.1256 90.498 63.1256 90.6777ZM64.3518 91.9463H63.2207V97.75H64.3518V91.9463ZM69.8926 91.9146C69.7975 91.8829 69.6812 91.8511 69.5649 91.83C69.4486 91.8089 69.3323 91.7983 69.216 91.7983C68.8143 91.7983 68.4337 91.8511 68.0743 91.9674C67.7149 92.0837 67.3977 92.2846 67.1335 92.5806V91.9463H66.0975V97.75H67.2392V94.9486C67.2392 94.6314 67.2603 94.3354 67.3132 94.0711C67.366 93.8069 67.4506 93.5743 67.588 93.384C67.7149 93.1937 67.8946 93.0457 68.1377 92.94C68.3809 92.8343 68.6875 92.7814 69.068 92.7814C69.3112 92.7814 69.5649 92.8237 69.8292 92.8977L69.956 92.9294V91.9357L69.8926 91.9146ZM71.7717 95.1706H76.6345L76.6662 95.1071C76.6768 95.0543 76.6874 95.0014 76.6874 94.9697C76.6874 94.5151 76.624 94.0923 76.4971 93.7011C76.3702 93.31 76.18 92.9823 75.9262 92.6969C75.6725 92.4114 75.3554 92.1894 74.9748 92.0309C74.5837 91.8723 74.1397 91.7983 73.6217 91.7983C73.146 91.7983 72.7231 91.8723 72.3425 92.0203C71.962 92.1683 71.6448 92.3797 71.3805 92.644C71.1162 92.9083 70.9048 93.236 70.7674 93.606C70.6194 93.976 70.5454 94.3989 70.5454 94.8534C70.5454 95.3186 70.6194 95.7414 70.7674 96.1114C70.9154 96.4814 71.1268 96.8091 71.4122 97.0734C71.6871 97.3377 72.0254 97.5491 72.4271 97.6866C72.8182 97.8346 73.2622 97.9086 73.7591 97.9086C74.3617 97.9086 74.9008 97.8029 75.3765 97.5809C75.8522 97.3589 76.254 96.9994 76.5711 96.5026L76.624 96.4074L75.514 95.9634L75.4717 96.0374C75.2708 96.3863 75.0277 96.6189 74.7422 96.7351C74.4462 96.8514 74.0868 96.9149 73.6745 96.9149C73.072 96.9149 72.6174 96.7563 72.3108 96.4497C71.9937 96.1431 71.814 95.7097 71.7717 95.1706ZM71.8034 94.2826C71.8774 93.8174 72.0782 93.4474 72.3848 93.1831C72.6914 92.9189 73.1037 92.7814 73.6217 92.7814C74.1608 92.7814 74.5837 92.9083 74.8691 93.162C75.1545 93.4263 75.3448 93.7963 75.44 94.2826H71.8034ZM86.7203 91.1111V90.0857H79.8595V91.1111H82.7349V97.75H83.866V91.1111H86.7203ZM90.9231 91.9146C90.828 91.8829 90.7117 91.8511 90.5954 91.83C90.4791 91.8089 90.3628 91.7983 90.2466 91.7983C89.8448 91.7983 89.4643 91.8511 89.1048 91.9674C88.7454 92.0837 88.4283 92.2846 88.164 92.5806V91.9463H87.128V97.75H88.2697V94.9486C88.2697 94.6314 88.2908 94.3354 88.3437 94.0711C88.3966 93.8069 88.4811 93.5743 88.6186 93.384C88.7454 93.1937 88.9251 93.0457 89.1683 92.94C89.4114 92.8343 89.718 92.7814 90.0986 92.7814C90.3417 92.7814 90.5954 92.8237 90.8597 92.8977L90.9866 92.9294V91.9357L90.9231 91.9146ZM91.7061 93.6589L92.7949 93.6483L92.8055 93.5637C92.8372 93.3946 92.9112 93.2571 93.0064 93.1409C93.1015 93.0351 93.2178 92.9506 93.3552 92.8977C93.4926 92.8449 93.6512 92.8026 93.8309 92.7814C94.0001 92.7603 94.1692 92.7497 94.3489 92.7497C94.4969 92.7497 94.6449 92.7603 94.7929 92.792C94.9304 92.8237 95.0784 92.866 95.2158 92.9189C95.4272 92.9929 95.5752 93.088 95.6704 93.1937C95.7549 93.2994 95.8395 93.458 95.9241 93.6589C95.9558 93.7223 95.9769 93.7751 95.9875 93.828C95.9981 93.8809 96.0192 93.9443 96.0298 94.0077V94.05L94.8564 94.198C94.7189 94.2086 94.5604 94.2297 94.4018 94.2403C94.2432 94.2614 94.0635 94.2931 93.8838 94.3249C93.6512 94.3566 93.3975 94.4094 93.1226 94.4834C92.8478 94.5574 92.5941 94.6526 92.3615 94.7794C92.1184 94.9063 91.9281 95.0649 91.7695 95.2657C91.6109 95.4666 91.5264 95.7203 91.5264 96.0163C91.5264 96.3017 91.5898 96.5554 91.7166 96.7774C91.8435 97.01 92.0126 97.2109 92.2241 97.3694C92.4249 97.528 92.6681 97.6549 92.9324 97.75C93.1966 97.8451 93.4609 97.8874 93.7358 97.8874C93.8944 97.8874 94.0741 97.8769 94.2855 97.8451C94.4969 97.8134 94.7189 97.7606 94.9409 97.6866C95.1629 97.6231 95.3744 97.5386 95.5752 97.4434C95.7761 97.3483 95.9452 97.232 96.0826 97.1051V97.75H97.2244V94.2297C97.2244 93.8174 97.1504 93.4474 97.0024 93.1409C96.8438 92.8343 96.6429 92.5806 96.3786 92.3797C96.1144 92.1789 95.7972 92.0203 95.4484 91.9146C95.0995 91.8194 94.7189 91.7666 94.3172 91.7666C94.0318 91.7666 93.7464 91.7983 93.4398 91.8511C93.1332 91.9146 92.8478 92.0097 92.5941 92.1471C92.3298 92.2846 92.1184 92.4749 91.9598 92.7074C91.7906 92.94 91.7061 93.2254 91.7061 93.5637V93.6589ZM96.0932 94.9697V95.1494C96.0932 95.2023 96.0932 95.2551 96.0826 95.2974C96.0721 95.3397 96.0509 95.382 96.0404 95.4349C96.0298 95.4877 96.0086 95.53 95.9875 95.5723C95.9664 95.6146 95.9452 95.6674 95.9346 95.7203C95.8606 95.9106 95.7549 96.0797 95.6069 96.2277C95.4484 96.3757 95.2792 96.5026 95.0889 96.6083C94.8881 96.714 94.6872 96.788 94.4652 96.8409C94.2432 96.8937 94.0212 96.9254 93.8204 96.9254C93.6829 96.9254 93.5561 96.8937 93.4186 96.8409C93.2812 96.788 93.1544 96.7246 93.0486 96.64C92.9324 96.5554 92.8478 96.4497 92.7738 96.3334C92.6998 96.2171 92.6681 96.1009 92.6681 95.974C92.6681 95.8366 92.7315 95.7203 92.8689 95.6251C92.9958 95.53 93.1649 95.456 93.3869 95.3926C93.5984 95.3291 93.8204 95.2763 94.0424 95.2446C94.2644 95.2129 94.4335 95.1917 94.5604 95.1811C94.6978 95.1706 94.8246 95.1494 94.9621 95.1283C95.0889 95.1071 95.2158 95.086 95.3532 95.0649C95.4695 95.0543 95.5964 95.0331 95.7232 95.012C95.8501 95.0014 95.9769 94.9803 96.0932 94.9697ZM104.347 94.8957C104.347 94.4729 104.305 94.0711 104.22 93.7011C104.135 93.3311 103.987 93.0034 103.787 92.718C103.575 92.4431 103.3 92.2211 102.962 92.0626C102.613 91.904 102.18 91.8194 101.662 91.8194C101.503 91.8194 101.345 91.8194 101.186 91.83C101.027 91.8406 100.869 91.8723 100.71 91.904C100.552 91.9357 100.393 91.9886 100.256 92.0626C100.118 92.1366 99.9914 92.2423 99.8751 92.3586V91.9463H98.7334V97.75H99.8751V94.7794C99.8751 94.5046 99.9069 94.2509 99.9597 94.0077C100.013 93.7646 100.108 93.5637 100.245 93.384C100.383 93.2149 100.552 93.0774 100.763 92.9717C100.975 92.8766 101.239 92.8237 101.545 92.8237C102.063 92.8237 102.465 92.9611 102.729 93.2254C102.994 93.5003 103.152 93.8809 103.184 94.3671C103.195 94.4623 103.195 94.5469 103.195 94.6314C103.195 94.716 103.195 94.8006 103.195 94.8957V97.75H104.347V94.8957ZM109.736 93.828L110.846 93.5849L110.815 93.4897C110.762 93.3629 110.698 93.236 110.635 93.0986C110.571 92.9717 110.487 92.8554 110.392 92.7391C110.085 92.4009 109.726 92.1577 109.313 92.0097C108.901 91.8723 108.468 91.7983 108.013 91.7983C107.812 91.7983 107.601 91.8089 107.389 91.8406C107.178 91.8723 106.967 91.9251 106.766 91.9991C106.607 92.0626 106.47 92.1366 106.332 92.2317C106.195 92.3269 106.068 92.4431 105.973 92.5594C105.867 92.6863 105.783 92.8237 105.73 92.9717C105.666 93.1197 105.635 93.2783 105.635 93.4474C105.635 93.6377 105.666 93.8069 105.74 93.9654C105.814 94.124 105.909 94.2614 106.026 94.3777C106.142 94.5046 106.279 94.6103 106.438 94.6949C106.597 94.7794 106.755 94.8429 106.924 94.8957C107.157 94.9697 107.389 95.0437 107.633 95.1071C107.865 95.1706 108.098 95.234 108.341 95.2869C108.404 95.2974 108.478 95.3186 108.552 95.3291C108.626 95.3503 108.7 95.3714 108.774 95.3926C108.859 95.4243 108.954 95.456 109.06 95.4877C109.165 95.5194 109.261 95.5723 109.356 95.6251C109.451 95.6886 109.525 95.7626 109.588 95.8366C109.641 95.9106 109.673 96.0057 109.673 96.122C109.673 96.2911 109.62 96.4286 109.514 96.5237C109.398 96.6294 109.271 96.714 109.113 96.7669C108.954 96.8197 108.795 96.862 108.626 96.8726C108.447 96.8937 108.299 96.9043 108.182 96.9043C107.717 96.9043 107.326 96.7986 107.019 96.5871C106.702 96.3757 106.512 96.048 106.459 95.604L106.449 95.4983L105.339 95.7414L105.36 95.8366C105.434 96.1854 105.55 96.492 105.719 96.7457C105.888 97.01 106.1 97.2214 106.343 97.3906C106.586 97.5597 106.871 97.6866 107.189 97.7711C107.495 97.8557 107.833 97.898 108.193 97.898C108.478 97.898 108.774 97.8769 109.081 97.824C109.387 97.7711 109.673 97.676 109.937 97.5386C110.201 97.4011 110.413 97.2214 110.582 96.9889C110.751 96.7563 110.836 96.4603 110.836 96.1114C110.836 95.8683 110.772 95.6463 110.656 95.4454C110.529 95.2551 110.371 95.086 110.18 94.9486C109.99 94.8111 109.779 94.7054 109.557 94.6103C109.335 94.5151 109.113 94.4517 108.901 94.3989C108.743 94.3671 108.595 94.3249 108.457 94.2931C108.309 94.2614 108.161 94.2191 108.013 94.1769C107.907 94.1451 107.77 94.1134 107.611 94.0817C107.537 94.0606 107.453 94.0289 107.358 93.9971C107.263 93.9654 107.167 93.9337 107.093 93.8809C107.009 93.828 106.945 93.7646 106.893 93.6906C106.84 93.6166 106.808 93.532 106.808 93.4369C106.808 93.31 106.85 93.2043 106.945 93.1197C107.03 93.0351 107.136 92.9717 107.263 92.9189C107.389 92.866 107.527 92.8343 107.664 92.8131C107.802 92.8026 107.918 92.792 108.013 92.792C108.415 92.792 108.764 92.866 109.049 93.0034C109.335 93.1409 109.557 93.3946 109.705 93.754L109.736 93.828ZM113.923 91.6397C113.933 91.4706 113.975 91.3331 114.049 91.2274C114.113 91.1217 114.197 91.0371 114.314 90.9843C114.43 90.9314 114.557 90.8997 114.694 90.8786C114.832 90.868 114.98 90.8574 115.128 90.8574C115.276 90.8574 115.424 90.868 115.572 90.8891L115.688 90.8997V89.9694L115.593 89.9589C115.392 89.9377 115.191 89.9271 114.99 89.9271C114.789 89.9271 114.589 89.9377 114.388 89.9694C114.187 90.0011 113.986 90.054 113.806 90.128C113.627 90.202 113.457 90.3077 113.309 90.4346C113.161 90.572 113.045 90.7306 112.95 90.9314C112.876 91.09 112.823 91.2591 112.813 91.4283C112.791 91.5974 112.781 91.7666 112.781 91.9463H111.385V92.8449H112.781V97.75H113.923V92.8449H115.688V91.9463H113.923V91.6397ZM117.5 95.1706H122.363L122.394 95.1071C122.405 95.0543 122.415 95.0014 122.415 94.9697C122.415 94.5151 122.352 94.0923 122.225 93.7011C122.098 93.31 121.908 92.9823 121.654 92.6969C121.401 92.4114 121.083 92.1894 120.703 92.0309C120.312 91.8723 119.868 91.7983 119.35 91.7983C118.874 91.7983 118.451 91.8723 118.071 92.0203C117.69 92.1683 117.373 92.3797 117.109 92.644C116.844 92.9083 116.633 93.236 116.495 93.606C116.347 93.976 116.273 94.3989 116.273 94.8534C116.273 95.3186 116.347 95.7414 116.495 96.1114C116.643 96.4814 116.855 96.8091 117.14 97.0734C117.415 97.3377 117.753 97.5491 118.155 97.6866C118.546 97.8346 118.99 97.9086 119.487 97.9086C120.09 97.9086 120.629 97.8029 121.105 97.5809C121.58 97.3589 121.982 96.9994 122.299 96.5026L122.352 96.4074L121.242 95.9634L121.2 96.0374C120.999 96.3863 120.756 96.6189 120.47 96.7351C120.174 96.8514 119.815 96.9149 119.403 96.9149C118.8 96.9149 118.345 96.7563 118.039 96.4497C117.722 96.1431 117.542 95.7097 117.5 95.1706ZM117.531 94.2826C117.605 93.8174 117.806 93.4474 118.113 93.1831C118.419 92.9189 118.832 92.7814 119.35 92.7814C119.889 92.7814 120.312 92.9083 120.597 93.162C120.883 93.4263 121.073 93.7963 121.168 94.2826H117.531ZM127.494 91.9146C127.399 91.8829 127.282 91.8511 127.166 91.83C127.05 91.8089 126.933 91.7983 126.817 91.7983C126.415 91.7983 126.035 91.8511 125.675 91.9674C125.316 92.0837 124.999 92.2846 124.735 92.5806V91.9463H123.699V97.75H124.84V94.9486C124.84 94.6314 124.861 94.3354 124.914 94.0711C124.967 93.8069 125.052 93.5743 125.189 93.384C125.316 93.1937 125.496 93.0457 125.739 92.94C125.982 92.8343 126.289 92.7814 126.669 92.7814C126.912 92.7814 127.166 92.8237 127.43 92.8977L127.557 92.9294V91.9357L127.494 91.9146Z" fill="white"/>
<path d="M88.8663 29.9769C89.2723 29.8132 89.726 29.8132 90.1319 29.9769L112.416 38.9665C113.056 39.2246 113.475 39.8453 113.475 40.5351L113.475 41.0192C113.475 41.9019 112.759 42.6175 111.876 42.6175L111.56 42.6175C110.852 42.6175 110.283 43.2676 109.766 43.751C109.425 44.07 109.021 44.2295 108.555 44.2295L70.4434 44.2295C69.9773 44.2295 69.5735 44.07 69.2322 43.751C68.7151 43.2676 68.1464 42.6175 67.4386 42.6175L67.1218 42.6175C66.2391 42.6175 65.5234 41.9019 65.5234 41.0192L65.5234 40.5351C65.5234 39.8453 65.9424 39.2246 66.5821 38.9665L88.8663 29.9769ZM71.917 47.5329C71.917 46.5988 72.6742 45.8415 73.6084 45.8415L76.619 45.8415C77.5532 45.8415 78.3105 46.5988 78.3105 47.5329L78.3105 63.5869C78.3105 64.4697 79.0261 65.1853 79.9089 65.1853C80.7916 65.1853 81.5072 64.4697 81.5072 63.5869L81.5072 47.5329C81.5072 46.5988 82.2645 45.8415 83.1987 45.8415L86.2093 45.8415C87.1435 45.8415 87.9008 46.5988 87.9008 47.5329L87.9008 63.5869C87.9008 64.4697 88.6164 65.1853 89.4991 65.1853C90.3819 65.1853 91.0975 64.4697 91.0975 63.5869L91.0975 47.5329C91.0975 46.5988 91.8548 45.8415 92.7889 45.8415L95.7996 45.8415C96.7338 45.8415 97.491 46.5988 97.491 47.5329L97.491 63.5869C97.491 64.4697 98.2066 65.1853 99.0894 65.1853C99.9722 65.1853 100.688 64.4697 100.688 63.5869L100.688 47.5329C100.688 46.5988 101.445 45.8415 102.379 45.8415L105.39 45.8415C106.324 45.8415 107.081 46.5988 107.081 47.5329L107.081 63.7118C107.081 64.5256 107.741 65.1853 108.555 65.1853C109.021 65.1853 109.425 65.3448 109.766 65.6638C110.107 65.9829 110.278 66.3607 110.278 66.7973C110.278 67.6875 109.556 68.4092 108.666 68.4092L70.3322 68.4092C69.4419 68.4092 68.7202 67.6875 68.7202 66.7973C68.7202 66.3607 68.8909 65.9829 69.2322 65.6638C69.5735 65.3448 69.9773 65.1853 70.4434 65.1853C71.2572 65.1853 71.917 64.5256 71.917 63.7118L71.917 47.5329ZM111.752 70.0212C112.218 70.0212 112.622 70.1807 112.963 70.4998C113.304 70.8188 113.475 71.1966 113.475 71.6332L113.475 73.1657C113.475 74.0999 112.718 74.8572 111.783 74.8572L67.2149 74.8572C66.2807 74.8572 65.5234 74.0999 65.5234 73.1657L65.5234 71.6332C65.5234 71.1966 65.6941 70.8188 66.0354 70.4998C66.3767 70.1807 66.7805 70.0212 67.2467 70.0212L111.752 70.0212Z" fill="white"/>
</g>
<defs>
<filter id="filter0_d" x="0.0857143" y="0.0857143" width="178.829" height="133.829" filterUnits="userSpaceOnUse" color-interpolation-filters="sRGB">
<feFlood flood-opacity="0" result="BackgroundImageFix"/>
<feColorMatrix in="SourceAlpha" type="matrix" values="0 0 0 0 0 0 0 0 0 0 0 0 0 0 0 0 0 0 127 0"/>
<feOffset/>
<feGaussianBlur stdDeviation="8.45714"/>
<feColorMatrix type="matrix" values="0 0 0 0 0 0 0 0 0 0 0 0 0 0 0 0 0 0 0.15 0"/>
<feBlend mode="normal" in2="BackgroundImageFix" result="effect1_dropShadow"/>
<feBlend mode="normal" in="SourceGraphic" in2="effect1_dropShadow" result="shape"/>
</filter>
</defs>
</svg>
